<svg aria-hidden="true" style="position: absolute; width: 0; height: 0; overflow: hidden;" version="1.1" xmlns="http://www.w3.org/2000/svg" xmlns:xlink="http://www.w3.org/1999/xlink">
<defs>
<symbol id="arrowrightwhite" viewBox="0 0 50 32">
<path fill="none" style="stroke: var(--color1, #fff)" stroke-linejoin="miter" stroke-linecap="butt" stroke-miterlimit="4" stroke-width="1.1852" d="M31.407 16c0 8.509-6.898 15.407-15.407 15.407s-15.407-6.898-15.407-15.407c0-8.509 6.898-15.407 15.407-15.407s15.407 6.898 15.407 15.407z"></path>
<path fill="#fff" style="fill: var(--color1, #fff)" d="M49.012 15.826c0.231-0.231 0.231-0.607 0-0.838l-3.771-3.771c-0.231-0.231-0.607-0.231-0.838 0s-0.231 0.607 0 0.838l3.352 3.352-3.352 3.352c-0.231 0.231-0.231 0.607 0 0.838s0.607 0.231 0.838 0l3.771-3.771zM15.407 16h33.185v-1.185h-33.185v1.185z"></path>
</symbol>
<symbol id="arrowrightblack" viewBox="0 0 49 32">
<path fill="none" stroke="#000" style="stroke: var(--color6, #000)" stroke-linejoin="miter" stroke-linecap="butt" stroke-miterlimit="4" stroke-width="0.5" d="M31.75 16c0 8.698-7.052 15.75-15.75 15.75s-15.75-7.052-15.75-15.75c0-8.698 7.051-15.75 15.75-15.75s15.75 7.051 15.75 15.75z"></path>
<path d="M48.177 16.177c0.098-0.098 0.098-0.256 0-0.354l-1.591-1.591c-0.098-0.098-0.256-0.098-0.354 0s-0.098 0.256 0 0.354l1.414 1.414-1.414 1.414c-0.098 0.098-0.098 0.256 0 0.354s0.256 0.098 0.354 0l1.591-1.591zM15 16.25h33v-0.5h-33v0.5z"></path>
</symbol>
<symbol id="arrowleftwhite" viewBox="0 0 50 32">
<path fill="none" stroke="#fff" style="stroke: var(--color1, #fff)" stroke-linejoin="miter" stroke-linecap="butt" stroke-miterlimit="4" stroke-width="1.1852" d="M49.185 16c0 8.509-6.898 15.407-15.407 15.407s-15.407-6.898-15.407-15.407c0-8.509 6.898-15.407 15.407-15.407s15.407 6.898 15.407 15.407z"></path>
<path fill="#fff" style="fill: var(--color1, #fff)" d="M0.766 16.174c-0.231 0.231-0.231 0.607 0 0.838l3.771 3.771c0.231 0.231 0.607 0.231 0.838 0s0.231-0.607 0-0.838l-3.352-3.352 3.352-3.352c0.231-0.231 0.231-0.607 0-0.838s-0.607-0.231-0.838 0l-3.771 3.771zM1.185 17.185h33.185v-1.185h-33.185v1.185z"></path>
</symbol>
<symbol id="arrowleftblack" viewBox="0 0 49 32">
<path fill="none" stroke="#000" style="stroke: var(--color5, #000)" stroke-linejoin="miter" stroke-linecap="butt" stroke-miterlimit="4" stroke-width="0.5" d="M48.25 16c0 8.698-7.051 15.75-15.75 15.75s-15.75-7.052-15.75-15.75c0-8.698 7.052-15.75 15.75-15.75s15.75 7.051 15.75 15.75z"></path>
<path d="M0.323 15.823c-0.098 0.098-0.098 0.256 0 0.354l1.591 1.591c0.098 0.098 0.256 0.098 0.354 0s0.098-0.256 0-0.354l-1.414-1.414 1.414-1.414c0.098-0.098 0.098-0.256 0-0.354s-0.256-0.098-0.354 0l-1.591 1.591zM0.5 16.25h33v-0.5h-33v0.5z"></path>
</symbol>
<!-- Колір змінюється через stroke -->
<symbol id="close" viewBox="0 0 32 32">
<path fill="none" stroke-linejoin="round" stroke-linecap="round" stroke-miterlimit="4" stroke-width="2.6667" d="M24 8l-16 16"></path>
<path fill="none" stroke-linejoin="round" stroke-linecap="round" stroke-miterlimit="4" stroke-width="2.6667" d="M8 8l16 16"></path>
</symbol>

<!-- Колір змінюється через fill -->
<symbol id="btn" viewBox="0 0 29 32">
<path d="M19.851 13.314c0.018-0.115-0.060-0.223-0.175-0.241l-1.871-0.296c-0.115-0.018-0.223 0.060-0.241 0.175s0.060 0.223 0.175 0.241l1.663 0.263-0.263 1.664c-0.018 0.115 0.060 0.223 0.175 0.241s0.223-0.060 0.241-0.175l0.296-1.871zM10.229 20.381l9.538-6.93-0.247-0.341-9.538 6.93 0.248 0.341z"></path>
<path d="M24.701 17.053c0.027-0.236 0.084-0.455 0.173-0.658 0.093-0.203 0.196-0.358 0.311-0.466l0.285 0.208c-0.1 0.106-0.193 0.246-0.279 0.42-0.082 0.174-0.134 0.361-0.157 0.561-0.031 0.272-0.011 0.472 0.059 0.601 0.074 0.129 0.181 0.202 0.322 0.218 0.105 0.012 0.191-0.014 0.256-0.076 0.069-0.058 0.124-0.14 0.165-0.246 0.045-0.105 0.086-0.224 0.123-0.355s0.077-0.263 0.122-0.394c0.044-0.127 0.099-0.242 0.166-0.345 0.070-0.102 0.158-0.182 0.264-0.24 0.105-0.054 0.239-0.072 0.403-0.054 0.156 0.017 0.291 0.077 0.404 0.177s0.195 0.238 0.245 0.413c0.053 0.179 0.066 0.389 0.039 0.632-0.021 0.185-0.067 0.367-0.139 0.546-0.068 0.18-0.149 0.325-0.242 0.436l-0.291-0.203c0.101-0.117 0.178-0.246 0.231-0.387 0.056-0.141 0.093-0.283 0.109-0.428 0.029-0.257 0.005-0.453-0.072-0.586-0.074-0.129-0.179-0.202-0.317-0.217-0.109-0.012-0.198 0.011-0.267 0.069-0.069 0.062-0.128 0.145-0.177 0.25-0.045 0.109-0.086 0.227-0.123 0.355-0.037 0.132-0.079 0.261-0.126 0.388-0.044 0.131-0.1 0.248-0.166 0.35-0.063 0.107-0.148 0.187-0.253 0.242-0.102 0.058-0.231 0.079-0.387 0.061-0.167-0.019-0.307-0.082-0.419-0.19-0.109-0.104-0.189-0.249-0.238-0.434-0.046-0.181-0.054-0.397-0.026-0.647z"></path>
<path d="M26.672 21.102c-0.087 0.217-0.206 0.389-0.356 0.518-0.148 0.133-0.325 0.212-0.531 0.236-0.208 0.027-0.44-0.011-0.698-0.114l-1.55-0.62 0.145-0.36 1.515 0.606c0.281 0.112 0.522 0.126 0.721 0.041 0.202-0.081 0.353-0.248 0.456-0.502 0.076-0.19 0.104-0.371 0.083-0.544-0.019-0.169-0.085-0.321-0.2-0.457-0.112-0.131-0.27-0.238-0.473-0.319l-1.403-0.561 0.145-0.361 3.771 1.508-0.145 0.361-1.835-0.734 0.166-0.016c0.159 0.162 0.255 0.358 0.289 0.587 0.037 0.231 0.004 0.475-0.1 0.732z"></path>
<path d="M22.514 22.446c0.175-0.215 0.382-0.369 0.619-0.463 0.238-0.089 0.482-0.114 0.733-0.075 0.254 0.041 0.491 0.152 0.712 0.331 0.224 0.182 0.38 0.391 0.469 0.628s0.113 0.479 0.070 0.727c-0.042 0.248-0.152 0.48-0.33 0.698-0.18 0.22-0.388 0.376-0.622 0.468-0.237 0.094-0.48 0.12-0.728 0.078-0.251-0.039-0.488-0.15-0.712-0.331-0.221-0.179-0.377-0.389-0.469-0.628-0.091-0.234-0.116-0.478-0.075-0.73 0.044-0.251 0.156-0.485 0.334-0.702zM22.782 22.663c-0.132 0.161-0.213 0.332-0.244 0.514-0.028 0.184-0.006 0.364 0.067 0.541 0.073 0.182 0.196 0.342 0.369 0.483 0.176 0.143 0.359 0.23 0.549 0.262 0.188 0.035 0.368 0.019 0.541-0.047 0.175-0.064 0.328-0.176 0.457-0.334s0.208-0.329 0.236-0.514c0.031-0.182 0.011-0.362-0.059-0.542s-0.193-0.34-0.369-0.483c-0.173-0.14-0.356-0.228-0.549-0.262-0.19-0.032-0.373-0.016-0.548 0.048-0.172 0.067-0.322 0.178-0.449 0.333z"></path>
<path d="M19.979 24.742c0.207-0.137 0.425-0.215 0.655-0.232 0.232-0.014 0.458 0.035 0.678 0.147 0.219 0.117 0.416 0.306 0.591 0.567s0.273 0.513 0.296 0.756c0.025 0.247-0.015 0.473-0.119 0.678s-0.261 0.378-0.471 0.517c-0.228 0.152-0.466 0.236-0.714 0.252-0.249 0.021-0.488-0.026-0.715-0.142-0.225-0.113-0.418-0.29-0.578-0.529-0.162-0.243-0.253-0.489-0.271-0.74s0.029-0.488 0.142-0.713c0.11-0.222 0.279-0.409 0.507-0.561zM20.638 23.060l2.19 3.27-0.31 0.206-0.481-0.719-0.288-0.499-0.368-0.452-1.066-1.592 0.324-0.215zM20.194 25.013c-0.17 0.113-0.297 0.252-0.38 0.417-0.081 0.168-0.114 0.348-0.1 0.54 0.016 0.195 0.087 0.385 0.21 0.57s0.272 0.321 0.444 0.408c0.172 0.087 0.352 0.125 0.538 0.115s0.365-0.072 0.535-0.185c0.17-0.113 0.297-0.255 0.381-0.424 0.081-0.168 0.114-0.348 0.1-0.54-0.017-0.19-0.088-0.377-0.212-0.562s-0.271-0.323-0.443-0.415c-0.172-0.087-0.352-0.125-0.538-0.115-0.188 0.015-0.366 0.079-0.536 0.193z"></path>
<path d="M16.254 29.188c-0.231 0.036-0.44 0.022-0.627-0.041-0.19-0.059-0.348-0.171-0.473-0.337-0.129-0.165-0.215-0.384-0.258-0.658l-0.257-1.65 0.384-0.059 0.251 1.612c0.047 0.299 0.157 0.513 0.332 0.641 0.172 0.132 0.393 0.177 0.664 0.136 0.202-0.031 0.372-0.1 0.511-0.206 0.136-0.102 0.233-0.237 0.291-0.405 0.056-0.164 0.067-0.354 0.033-0.57l-0.233-1.493 0.384-0.059 0.442 2.839-0.368 0.057-0.121-0.779 0.082 0.137c-0.058 0.22-0.177 0.402-0.358 0.548-0.18 0.15-0.407 0.246-0.681 0.288z"></path>
<path d="M12.936 26.308c0.274 0.040 0.513 0.138 0.715 0.293 0.198 0.158 0.344 0.355 0.438 0.59 0.094 0.239 0.12 0.499 0.078 0.78-0.042 0.285-0.142 0.527-0.301 0.725s-0.355 0.342-0.59 0.433c-0.235 0.091-0.491 0.116-0.769 0.075-0.282-0.041-0.522-0.139-0.72-0.294-0.202-0.155-0.348-0.35-0.439-0.585-0.094-0.235-0.12-0.495-0.078-0.78 0.042-0.282 0.142-0.523 0.301-0.725 0.155-0.199 0.352-0.345 0.591-0.439 0.238-0.090 0.497-0.115 0.775-0.074zM12.885 26.649c-0.206-0.030-0.395-0.012-0.567 0.055-0.173 0.071-0.316 0.182-0.431 0.335-0.119 0.156-0.195 0.344-0.227 0.564-0.033 0.224-0.015 0.426 0.054 0.605 0.066 0.179 0.171 0.326 0.317 0.439 0.145 0.117 0.319 0.191 0.521 0.22s0.39 0.009 0.562-0.061c0.172-0.067 0.318-0.177 0.436-0.329s0.194-0.34 0.227-0.564c0.033-0.22 0.014-0.422-0.054-0.605-0.069-0.18-0.176-0.328-0.321-0.446-0.146-0.114-0.318-0.185-0.516-0.214z"></path>
<path d="M10.539 25.818l-0.419 3.040-0.327-0.177 0.407-2.81 0.149 0.081-2.164 1.86-0.294-0.159 0.392-2.818 0.149 0.081-2.155 1.866-0.313-0.169 2.331-2.007 0.323 0.174-0.35 2.66-0.101-0.055 2.050-1.742 0.323 0.174z"></path>
<path d="M5.941 22.196c0.139 0.192 0.244 0.393 0.315 0.603 0.068 0.212 0.096 0.396 0.083 0.554l-0.352 0.037c0.003-0.146-0.023-0.312-0.077-0.498-0.057-0.184-0.144-0.357-0.262-0.52-0.16-0.222-0.31-0.357-0.449-0.405-0.142-0.046-0.27-0.028-0.386 0.055-0.086 0.062-0.132 0.138-0.139 0.228-0.012 0.089 0.003 0.187 0.043 0.293 0.038 0.108 0.087 0.223 0.148 0.345s0.12 0.246 0.175 0.373c0.053 0.123 0.090 0.246 0.11 0.366 0.017 0.123 0.006 0.241-0.034 0.355-0.041 0.111-0.129 0.214-0.262 0.31-0.127 0.092-0.267 0.138-0.419 0.14s-0.306-0.045-0.46-0.141c-0.16-0.096-0.311-0.243-0.455-0.441-0.109-0.151-0.198-0.316-0.265-0.497-0.071-0.178-0.109-0.34-0.114-0.484l0.353-0.045c0.004 0.155 0.034 0.302 0.090 0.441 0.053 0.142 0.122 0.272 0.208 0.39 0.152 0.21 0.301 0.338 0.448 0.386 0.142 0.046 0.269 0.029 0.381-0.052 0.089-0.064 0.139-0.141 0.151-0.23 0.010-0.092-0.003-0.194-0.037-0.304-0.040-0.111-0.089-0.226-0.148-0.345-0.061-0.122-0.117-0.246-0.168-0.372-0.056-0.126-0.093-0.25-0.113-0.371-0.025-0.121-0.017-0.238 0.025-0.348 0.036-0.112 0.118-0.213 0.246-0.305 0.136-0.098 0.283-0.145 0.439-0.14 0.151 0.004 0.307 0.058 0.469 0.162 0.156 0.104 0.308 0.257 0.456 0.461z"></path>
<path d="M1.753 20.529c-0.081-0.219-0.11-0.426-0.085-0.622 0.020-0.198 0.098-0.375 0.235-0.53 0.136-0.159 0.333-0.287 0.593-0.383l1.566-0.579 0.136 0.364-1.53 0.566c-0.284 0.105-0.471 0.256-0.562 0.453-0.095 0.195-0.095 0.42 0.001 0.677 0.071 0.192 0.173 0.345 0.305 0.459 0.127 0.112 0.279 0.181 0.456 0.205 0.172 0.022 0.36-0.005 0.566-0.081l1.417-0.524 0.136 0.364-3.809 1.409-0.136-0.364 1.853-0.685-0.112 0.123c-0.227-0.013-0.43-0.094-0.61-0.241-0.183-0.146-0.323-0.349-0.42-0.609z"></path>
<path d="M3.92 16.759c0.015 0.277-0.033 0.53-0.145 0.759-0.116 0.226-0.279 0.408-0.491 0.547-0.215 0.14-0.465 0.217-0.749 0.232-0.288 0.016-0.545-0.035-0.77-0.15s-0.406-0.28-0.542-0.492c-0.136-0.212-0.211-0.458-0.226-0.739-0.015-0.284 0.033-0.539 0.145-0.764 0.112-0.229 0.274-0.411 0.486-0.547 0.212-0.139 0.462-0.217 0.749-0.232 0.284-0.015 0.541 0.035 0.77 0.15 0.225 0.112 0.408 0.276 0.547 0.491 0.136 0.216 0.212 0.464 0.227 0.744zM3.575 16.778c-0.011-0.208-0.067-0.389-0.167-0.545-0.103-0.155-0.241-0.274-0.414-0.356-0.176-0.086-0.376-0.122-0.598-0.11-0.226 0.012-0.42 0.070-0.583 0.174-0.163 0.1-0.285 0.233-0.368 0.398-0.086 0.165-0.124 0.35-0.112 0.554s0.068 0.384 0.172 0.539c0.1 0.155 0.236 0.276 0.409 0.362s0.372 0.122 0.598 0.11c0.222-0.012 0.416-0.070 0.583-0.174 0.162-0.104 0.287-0.238 0.373-0.404 0.082-0.165 0.118-0.348 0.107-0.548z"></path>
<path d="M4.242 13.351c-0.061 0.241-0.17 0.445-0.329 0.612-0.162 0.166-0.362 0.282-0.601 0.346-0.241 0.060-0.514 0.052-0.818-0.024s-0.547-0.197-0.727-0.362c-0.184-0.166-0.306-0.361-0.367-0.583s-0.060-0.455 0.001-0.699c0.067-0.265 0.187-0.488 0.359-0.666 0.17-0.183 0.378-0.308 0.625-0.374 0.243-0.067 0.504-0.066 0.784 0.004 0.283 0.071 0.516 0.193 0.698 0.366s0.307 0.381 0.374 0.624c0.068 0.239 0.068 0.491 0.002 0.756zM4.884 15.040l-3.818-0.954 0.091-0.361 0.839 0.21 0.548 0.177 0.576 0.088 1.859 0.464-0.095 0.377zM3.901 13.294c0.050-0.198 0.050-0.386 0.001-0.564-0.053-0.179-0.149-0.334-0.289-0.467-0.143-0.134-0.323-0.227-0.539-0.281s-0.417-0.055-0.603-0.004-0.345 0.143-0.476 0.276c-0.131 0.133-0.222 0.298-0.272 0.496s-0.049 0.388 0.003 0.571c0.053 0.179 0.149 0.334 0.289 0.467 0.141 0.129 0.319 0.221 0.535 0.275s0.418 0.058 0.607 0.011c0.186-0.051 0.345-0.143 0.476-0.276 0.129-0.137 0.218-0.305 0.268-0.503z"></path>
<path d="M3.999 7.578c0.147-0.181 0.311-0.311 0.493-0.39 0.181-0.084 0.373-0.107 0.577-0.069 0.206 0.035 0.418 0.14 0.634 0.314l1.3 1.048-0.245 0.302-1.27-1.024c-0.236-0.19-0.462-0.274-0.678-0.251-0.216 0.018-0.411 0.133-0.583 0.345-0.129 0.159-0.209 0.324-0.24 0.496-0.032 0.167-0.013 0.332 0.056 0.495 0.069 0.159 0.188 0.306 0.359 0.444l1.176 0.948-0.245 0.302-2.237-1.803 0.235-0.289 0.614 0.495-0.153-0.046c-0.104-0.201-0.139-0.417-0.103-0.646 0.033-0.231 0.136-0.455 0.311-0.67z"></path>
<path d="M8.349 7.512c-0.23 0.154-0.473 0.242-0.727 0.263-0.253 0.016-0.494-0.031-0.723-0.141-0.231-0.113-0.426-0.288-0.585-0.524-0.161-0.239-0.25-0.485-0.267-0.737s0.032-0.491 0.144-0.716c0.112-0.225 0.285-0.415 0.519-0.572 0.236-0.159 0.48-0.247 0.731-0.267 0.254-0.021 0.494 0.024 0.72 0.137 0.229 0.11 0.424 0.285 0.585 0.524 0.159 0.236 0.248 0.482 0.267 0.737 0.019 0.251-0.027 0.491-0.141 0.721-0.115 0.227-0.29 0.419-0.523 0.575zM8.156 7.227c0.173-0.116 0.3-0.256 0.383-0.421 0.080-0.168 0.111-0.347 0.093-0.537-0.017-0.195-0.088-0.385-0.213-0.569-0.127-0.188-0.276-0.324-0.449-0.411-0.17-0.088-0.347-0.126-0.531-0.112-0.186 0.011-0.364 0.073-0.534 0.187s-0.295 0.255-0.375 0.423c-0.082 0.165-0.116 0.344-0.101 0.536s0.086 0.382 0.213 0.569c0.125 0.184 0.274 0.321 0.449 0.411 0.173 0.086 0.352 0.124 0.539 0.113 0.184-0.014 0.36-0.077 0.527-0.188z"></path>
<path d="M10.498 6.236l-1.733-2.537 0.362-0.087 1.588 2.358-0.165 0.040 0.354-2.828 0.325-0.079 1.604 2.355-0.165 0.040 0.343-2.826 0.346-0.084-0.379 3.048-0.356 0.086-1.529-2.209 0.112-0.027-0.349 2.664-0.356 0.086z"></path>
<path d="M16.333 5.834c-0.232-0.050-0.444-0.129-0.638-0.237-0.192-0.112-0.337-0.231-0.433-0.356l0.236-0.263c0.096 0.11 0.226 0.216 0.391 0.319 0.165 0.099 0.346 0.169 0.542 0.211 0.268 0.057 0.469 0.057 0.605 0.001 0.136-0.060 0.219-0.16 0.249-0.299 0.022-0.103 0.006-0.191-0.050-0.263-0.051-0.074-0.127-0.137-0.228-0.189-0.1-0.055-0.214-0.107-0.341-0.157s-0.254-0.103-0.38-0.16c-0.122-0.056-0.231-0.122-0.327-0.199-0.095-0.080-0.166-0.175-0.213-0.286-0.043-0.11-0.048-0.245-0.013-0.406 0.033-0.153 0.105-0.282 0.217-0.385s0.257-0.171 0.436-0.203c0.183-0.035 0.394-0.028 0.633 0.023 0.182 0.039 0.359 0.103 0.53 0.192 0.172 0.085 0.308 0.18 0.409 0.283l-0.232 0.27c-0.106-0.112-0.227-0.202-0.362-0.268-0.134-0.070-0.273-0.12-0.416-0.15-0.253-0.054-0.45-0.050-0.591 0.014-0.136 0.060-0.219 0.158-0.248 0.294-0.023 0.107-0.009 0.198 0.042 0.272 0.055 0.075 0.132 0.142 0.231 0.201 0.104 0.056 0.217 0.108 0.341 0.157 0.127 0.050 0.252 0.104 0.373 0.164 0.126 0.057 0.237 0.123 0.332 0.2 0.1 0.074 0.172 0.165 0.215 0.276 0.048 0.107 0.055 0.238 0.022 0.391-0.035 0.164-0.112 0.297-0.231 0.398-0.115 0.099-0.267 0.163-0.456 0.194-0.185 0.028-0.401 0.015-0.647-0.038z"></path>
<path d="M20.603 4.274c0.207 0.108 0.367 0.243 0.48 0.405 0.118 0.16 0.178 0.344 0.181 0.551 0.006 0.209-0.056 0.436-0.185 0.682l-0.776 1.478-0.345-0.18 0.758-1.444c0.141-0.268 0.179-0.506 0.114-0.712-0.060-0.208-0.211-0.375-0.454-0.502-0.181-0.094-0.359-0.14-0.534-0.136-0.17 0.002-0.329 0.053-0.476 0.153-0.142 0.099-0.265 0.245-0.366 0.439l-0.702 1.338-0.345-0.18 1.887-3.596 0.345 0.18-0.918 1.75 0.001-0.166c0.178-0.142 0.382-0.218 0.615-0.229 0.234-0.014 0.474 0.043 0.72 0.172z"></path>
<path d="M21.541 8.529c-0.197-0.195-0.331-0.415-0.402-0.659-0.065-0.244-0.066-0.489-0.003-0.734 0.066-0.248 0.2-0.472 0.401-0.674 0.203-0.204 0.428-0.339 0.673-0.404s0.49-0.065 0.733 0.001c0.243 0.066 0.465 0.198 0.664 0.396 0.202 0.2 0.338 0.421 0.406 0.663 0.071 0.245 0.073 0.488 0.007 0.73-0.064 0.245-0.197 0.47-0.401 0.674-0.201 0.202-0.425 0.336-0.673 0.404-0.243 0.068-0.488 0.069-0.737 0.003-0.246-0.069-0.469-0.202-0.668-0.399zM21.784 8.284c0.148 0.146 0.311 0.244 0.49 0.292 0.181 0.046 0.363 0.041 0.547-0.014 0.188-0.055 0.361-0.161 0.518-0.319 0.16-0.16 0.265-0.333 0.316-0.519 0.054-0.183 0.056-0.363 0.006-0.541-0.047-0.18-0.143-0.342-0.289-0.486s-0.308-0.238-0.489-0.284c-0.179-0.048-0.361-0.046-0.547 0.006s-0.359 0.158-0.518 0.319c-0.157 0.158-0.262 0.331-0.316 0.519-0.051 0.186-0.053 0.369-0.006 0.549 0.050 0.178 0.146 0.337 0.289 0.478z"></path>
<path d="M23.572 11.22c-0.118-0.218-0.174-0.443-0.17-0.673 0.008-0.232 0.078-0.452 0.211-0.659 0.138-0.206 0.345-0.383 0.621-0.531s0.538-0.222 0.783-0.22c0.248-0.001 0.47 0.061 0.665 0.184s0.352 0.296 0.472 0.517c0.13 0.241 0.191 0.485 0.184 0.734-0.002 0.25-0.072 0.482-0.209 0.696-0.134 0.213-0.328 0.387-0.582 0.523-0.257 0.138-0.512 0.204-0.764 0.198s-0.484-0.076-0.698-0.21c-0.212-0.131-0.382-0.317-0.512-0.558zM21.957 10.403l3.469-1.858 0.177 0.328-0.762 0.408-0.525 0.238-0.486 0.322-1.689 0.904-0.184-0.342zM23.863 11.034c0.097 0.18 0.224 0.319 0.38 0.417 0.16 0.097 0.336 0.147 0.529 0.151 0.196 0.003 0.392-0.049 0.589-0.154s0.346-0.239 0.449-0.402c0.103-0.163 0.158-0.337 0.166-0.523s-0.037-0.369-0.134-0.549c-0.097-0.18-0.226-0.32-0.388-0.419-0.16-0.097-0.336-0.147-0.529-0.151-0.191-0.001-0.385 0.051-0.581 0.156s-0.348 0.238-0.456 0.4c-0.103 0.163-0.158 0.337-0.166 0.523-0.003 0.188 0.045 0.371 0.142 0.551z"></path>
</symbol>
<symbol id="burger" viewBox="0 0 32 32">
<path fill="#000" d="M4 5.333h24v2.667h-24v-2.667zM12 14.667h16v2.667h-16v-2.667zM4 24h24v2.667h-24v-2.667z"></path>
</symbol>
<symbol id="facebook" viewBox="0 0 32 32">
<path fill="none" stroke="#fff" style="stroke: var(--color6, #fff)" stroke-linejoin="round" stroke-linecap="round" stroke-miterlimit="4" stroke-width="2.2857" d="M24 2.667h-4c-1.768 0-3.464 0.702-4.714 1.953s-1.953 2.946-1.953 4.714v4h-4v5.333h4v10.667h5.333v-10.667h4l1.333-5.333h-5.333v-4c0-0.354 0.14-0.693 0.39-0.943s0.589-0.391 0.943-0.391h4v-5.333z"></path>
</symbol>
<symbol id="instagram" viewBox="0 0 32 32">
<path fill="none" stroke="#fff" style="stroke: var(--color6, #fff)" stroke-linejoin="round" stroke-linecap="round" stroke-miterlimit="4" stroke-width="2.2857" d="M22.666 2.667h-13.333c-3.682 0-6.667 2.985-6.667 6.667v13.333c0 3.682 2.985 6.667 6.667 6.667h13.333c3.682 0 6.667-2.985 6.667-6.667v-13.333c0-3.682-2.985-6.667-6.667-6.667z"></path>
<path fill="none" stroke="#fff" style="stroke: var(--color6, #fff)" stroke-linejoin="round" stroke-linecap="round" stroke-miterlimit="4" stroke-width="2.2857" d="M21.333 15.16c0.164 1.11-0.025 2.243-0.542 3.239s-1.334 1.803-2.336 2.308c-1.002 0.504-2.137 0.68-3.245 0.502s-2.131-0.701-2.924-1.494c-0.793-0.793-1.316-1.816-1.494-2.924s-0.003-2.243 0.502-3.245c0.504-1.002 1.312-1.82 2.307-2.336s2.129-0.706 3.239-0.542c1.132 0.168 2.18 0.695 2.989 1.504s1.337 1.857 1.504 2.989z"></path>
<path fill="none" stroke="#fff" style="stroke: var(--color6, #fff)" stroke-linejoin="round" stroke-linecap="round" stroke-miterlimit="4" stroke-width="2.2857" d="M23.334 8.667h0.013"></path>
</symbol>
<symbol id="logo" viewBox="0 0 41 32">
<path d="M16.241 31.144v-4.916l-0.219-0.922v-8.384c0-1.785-0.527-3.16-1.58-4.126-1.024-0.995-2.575-1.492-4.653-1.492-1.375 0-2.721 0.234-4.038 0.702-1.317 0.439-2.429 1.039-3.336 1.8l-1.756-3.161c1.2-0.966 2.634-1.697 4.302-2.195 1.697-0.527 3.468-0.79 5.311-0.79 3.19 0 5.648 0.775 7.374 2.326s2.59 3.921 2.59 7.111v14.047h-3.994zM8.604 31.407c-1.727 0-3.248-0.293-4.565-0.878-1.288-0.585-2.283-1.39-2.985-2.414-0.702-1.053-1.054-2.239-1.054-3.556 0-1.258 0.293-2.4 0.878-3.424 0.615-1.024 1.595-1.844 2.941-2.458 1.375-0.615 3.219-0.922 5.531-0.922h7.375v3.029h-7.199c-2.107 0-3.526 0.351-4.258 1.053s-1.097 1.551-1.097 2.546c0 1.141 0.454 2.063 1.361 2.765 0.907 0.673 2.166 1.010 3.775 1.010 1.58 0 2.956-0.351 4.126-1.053 1.2-0.702 2.063-1.727 2.59-3.073l0.834 2.897c-0.556 1.375-1.536 2.473-2.941 3.292-1.405 0.79-3.175 1.185-5.311 1.185z"></path>
<path d="M29.718 31.407c-2.487 0-4.682-0.512-6.584-1.536-1.873-1.024-3.336-2.429-4.39-4.214-1.024-1.785-1.536-3.834-1.536-6.145s0.497-4.36 1.492-6.145c1.024-1.785 2.414-3.175 4.17-4.17 1.785-1.024 3.79-1.536 6.014-1.536 2.253 0 4.243 0.498 5.97 1.492s3.073 2.4 4.038 4.214c0.995 1.785 1.492 3.878 1.492 6.277 0 0.176-0.015 0.38-0.044 0.614 0 0.234-0.015 0.454-0.044 0.659h-19.797v-3.029h17.602l-1.712 1.053c0.029-1.492-0.278-2.824-0.922-3.995s-1.536-2.078-2.678-2.722c-1.112-0.673-2.414-1.010-3.907-1.010-1.463 0-2.765 0.337-3.907 1.010-1.141 0.644-2.034 1.566-2.678 2.765-0.644 1.171-0.966 2.517-0.966 4.038v0.702c0 1.551 0.351 2.941 1.053 4.17 0.732 1.2 1.741 2.136 3.029 2.809s2.765 1.010 4.433 1.010c1.375 0 2.619-0.234 3.731-0.702 1.141-0.468 2.136-1.171 2.985-2.107l2.327 2.721c-1.053 1.229-2.37 2.166-3.951 2.809-1.551 0.644-3.292 0.966-5.224 0.966z"></path>
<path d="M37.311 3.292h-15.364v-3.292h15.364v3.292z"></path>
</symbol>
<!-- Кнопка в hero для анимації на desktop -->
<symbol id="btn-arrow" viewBox="0 0 47 32">
<path fill="#fff" style="fill: var(--color1, #fff)" d="M0.418 30.357c-0.416 0.26-0.543 0.809-0.283 1.225s0.809 0.543 1.225 0.283l-0.942-1.508zM46.984 3.049c0.11-0.478-0.188-0.956-0.666-1.066l-7.795-1.8c-0.478-0.11-0.956 0.188-1.066 0.666s0.188 0.956 0.666 1.066l6.929 1.6-1.6 6.929c-0.111 0.478 0.188 0.956 0.666 1.066s0.956-0.188 1.066-0.666l1.8-7.795zM1.36 31.865l45.229-28.262-0.942-1.508-45.229 28.262 0.942 1.508z"></path>
</symbol>
<symbol id="btn-border" viewBox="0 0 32 32">
<path fill="#fff" style="fill: var(--color1, #fff)" d="M28.663 16.733c0.009-0.15 0.038-0.291 0.087-0.422 0.052-0.131 0.112-0.233 0.181-0.306l0.188 0.122c-0.060 0.071-0.114 0.163-0.162 0.276-0.046 0.113-0.072 0.233-0.080 0.36-0.010 0.173 0.009 0.299 0.058 0.379 0.051 0.079 0.122 0.122 0.212 0.127 0.067 0.004 0.12-0.015 0.16-0.057 0.042-0.039 0.074-0.093 0.096-0.161 0.025-0.068 0.047-0.144 0.065-0.229s0.040-0.169 0.063-0.254c0.023-0.082 0.054-0.157 0.093-0.224 0.041-0.067 0.094-0.121 0.159-0.161 0.065-0.038 0.149-0.054 0.253-0.048 0.099 0.006 0.187 0.039 0.262 0.099s0.132 0.144 0.169 0.253c0.040 0.111 0.056 0.244 0.046 0.399-0.007 0.118-0.030 0.235-0.069 0.351-0.037 0.116-0.083 0.211-0.138 0.284l-0.191-0.119c0.060-0.078 0.104-0.162 0.133-0.253 0.031-0.091 0.049-0.183 0.054-0.275 0.009-0.164-0.012-0.287-0.066-0.369-0.051-0.079-0.12-0.122-0.208-0.127-0.069-0.004-0.125 0.014-0.166 0.053-0.042 0.042-0.076 0.096-0.103 0.164-0.025 0.070-0.047 0.147-0.066 0.229-0.019 0.085-0.041 0.168-0.067 0.25-0.024 0.084-0.055 0.16-0.093 0.227-0.037 0.070-0.087 0.124-0.152 0.162-0.063 0.040-0.144 0.058-0.243 0.052-0.106-0.006-0.197-0.042-0.272-0.106-0.073-0.062-0.128-0.151-0.165-0.267-0.035-0.113-0.048-0.25-0.039-0.409z"></path>
<path fill="#fff" style="fill: var(--color1, #fff)" d="M30.209 19.111c-0.031 0.145-0.087 0.265-0.166 0.362-0.078 0.099-0.18 0.167-0.306 0.204-0.127 0.039-0.276 0.040-0.448 0.003l-1.035-0.222 0.052-0.241 1.011 0.217c0.188 0.040 0.339 0.023 0.455-0.051 0.117-0.072 0.194-0.193 0.23-0.362 0.027-0.127 0.025-0.243-0.007-0.349-0.030-0.103-0.088-0.192-0.174-0.264-0.084-0.070-0.194-0.12-0.33-0.149l-0.936-0.201 0.052-0.241 2.517 0.54-0.052 0.241-1.225-0.263 0.102-0.028c0.117 0.084 0.198 0.196 0.244 0.336 0.048 0.14 0.053 0.297 0.017 0.468z"></path>
<path fill="#fff" style="fill: var(--color1, #fff)" d="M27.766 20.76c0.067-0.163 0.163-0.295 0.289-0.395 0.128-0.098 0.271-0.158 0.43-0.18 0.161-0.021 0.325 0.002 0.492 0.071 0.169 0.069 0.303 0.168 0.4 0.295s0.157 0.27 0.177 0.429c0.020 0.158-0.004 0.32-0.071 0.485-0.068 0.167-0.165 0.3-0.291 0.398-0.126 0.101-0.269 0.161-0.427 0.181-0.159 0.022-0.323-0.001-0.492-0.071-0.167-0.068-0.3-0.167-0.4-0.295-0.099-0.125-0.159-0.269-0.18-0.43-0.019-0.16 0.005-0.323 0.072-0.488zM27.969 20.843c-0.050 0.122-0.067 0.241-0.053 0.357 0.017 0.117 0.064 0.222 0.14 0.316 0.078 0.097 0.182 0.172 0.313 0.226 0.133 0.054 0.26 0.074 0.381 0.059 0.12-0.013 0.227-0.056 0.319-0.128 0.094-0.071 0.166-0.167 0.215-0.287s0.065-0.238 0.048-0.355c-0.015-0.116-0.060-0.222-0.136-0.318s-0.18-0.171-0.312-0.226c-0.131-0.054-0.258-0.073-0.381-0.059-0.121 0.015-0.229 0.059-0.323 0.13-0.092 0.072-0.162 0.167-0.21 0.285z"></path>
<path fill="#fff" style="fill: var(--color1, #fff)" d="M26.715 22.804c0.084-0.133 0.19-0.234 0.319-0.303 0.131-0.068 0.274-0.098 0.43-0.090 0.157 0.011 0.319 0.070 0.488 0.176s0.29 0.227 0.366 0.362c0.078 0.137 0.113 0.278 0.106 0.424s-0.053 0.286-0.139 0.421c-0.093 0.147-0.209 0.257-0.348 0.33-0.139 0.077-0.289 0.11-0.45 0.102-0.159-0.008-0.316-0.060-0.471-0.158-0.157-0.099-0.272-0.218-0.348-0.359s-0.109-0.291-0.102-0.45c0.006-0.157 0.056-0.31 0.148-0.456zM26.662 21.659l2.11 1.331-0.126 0.2-0.464-0.293-0.295-0.215-0.33-0.167-1.027-0.648 0.131-0.208zM26.909 22.907c-0.069 0.11-0.106 0.223-0.112 0.34-0.003 0.118 0.024 0.231 0.082 0.339 0.060 0.109 0.149 0.201 0.269 0.276s0.24 0.116 0.362 0.122c0.122 0.006 0.236-0.018 0.341-0.072s0.192-0.136 0.262-0.245 0.106-0.224 0.111-0.344c0.003-0.118-0.024-0.231-0.082-0.339-0.059-0.106-0.148-0.196-0.268-0.272s-0.241-0.117-0.363-0.127c-0.122-0.006-0.236 0.018-0.341 0.072-0.104 0.057-0.191 0.141-0.26 0.25z"></path>
<path fill="#fff" style="fill: var(--color1, #fff)" d="M25.988 26.58c-0.107 0.102-0.221 0.17-0.342 0.205-0.12 0.038-0.243 0.036-0.368-0.004-0.127-0.039-0.251-0.123-0.372-0.25l-0.729-0.767 0.178-0.17 0.712 0.749c0.132 0.139 0.267 0.21 0.404 0.214 0.137 0.007 0.269-0.050 0.395-0.169 0.094-0.089 0.158-0.187 0.191-0.292 0.034-0.102 0.036-0.208 0.006-0.317-0.030-0.105-0.093-0.208-0.189-0.309l-0.66-0.694 0.178-0.17 1.255 1.32-0.171 0.163-0.344-0.362 0.092 0.041c0.049 0.136 0.053 0.274 0.012 0.415-0.040 0.143-0.123 0.275-0.251 0.396z"></path>
<path fill="#fff" style="fill: var(--color1, #fff)" d="M23.062 26.552c0.146-0.098 0.3-0.153 0.461-0.166 0.16-0.010 0.313 0.021 0.457 0.091 0.146 0.072 0.269 0.184 0.369 0.334 0.102 0.152 0.157 0.308 0.167 0.469s-0.021 0.312-0.093 0.454-0.182 0.263-0.33 0.362c-0.15 0.1-0.305 0.156-0.464 0.168-0.161 0.013-0.313-0.017-0.455-0.088-0.144-0.071-0.267-0.182-0.369-0.334-0.1-0.15-0.156-0.306-0.167-0.469-0.012-0.159 0.019-0.312 0.091-0.457 0.074-0.144 0.185-0.265 0.333-0.364zM23.183 26.733c-0.11 0.073-0.191 0.162-0.243 0.267-0.051 0.107-0.072 0.22-0.061 0.341 0.010 0.124 0.055 0.244 0.133 0.362 0.080 0.119 0.174 0.206 0.283 0.262 0.107 0.056 0.219 0.080 0.336 0.072 0.118-0.006 0.231-0.046 0.339-0.118s0.187-0.161 0.238-0.268c0.053-0.105 0.074-0.218 0.065-0.34s-0.053-0.242-0.133-0.362c-0.078-0.117-0.173-0.205-0.283-0.262-0.109-0.055-0.223-0.079-0.341-0.073-0.117 0.008-0.228 0.048-0.334 0.119z"></path>
<path fill="#fff" style="fill: var(--color1, #fff)" d="M21.597 27.447l1.332 1.42-0.218 0.090-1.224-1.322 0.099-0.041 0.054 1.807-0.195 0.081-1.234-1.318 0.099-0.041 0.060 1.804-0.208 0.086-0.059-1.947 0.215-0.089 1.172 1.235-0.067 0.028-0.041-1.703 0.215-0.089z"></path>
<path fill="#fff" style="fill: var(--color1, #fff)" d="M17.898 28.556c0.149-0.022 0.293-0.022 0.431-0.001 0.139 0.024 0.251 0.062 0.336 0.115l-0.081 0.209c-0.081-0.044-0.182-0.078-0.303-0.103-0.12-0.022-0.243-0.024-0.369-0.005-0.172 0.025-0.291 0.070-0.359 0.134-0.067 0.066-0.095 0.144-0.081 0.233 0.010 0.067 0.039 0.115 0.088 0.145 0.047 0.033 0.106 0.053 0.177 0.061 0.072 0.010 0.151 0.016 0.238 0.018s0.174 0.005 0.261 0.011c0.085 0.006 0.164 0.021 0.238 0.046 0.074 0.026 0.137 0.067 0.19 0.123 0.050 0.056 0.083 0.135 0.098 0.238 0.015 0.098 0 0.19-0.043 0.276s-0.115 0.158-0.213 0.217c-0.101 0.062-0.228 0.104-0.381 0.126-0.117 0.017-0.236 0.018-0.357 0.003-0.121-0.013-0.223-0.038-0.306-0.078l0.078-0.211c0.088 0.043 0.18 0.069 0.275 0.079 0.095 0.012 0.189 0.011 0.28-0.003 0.163-0.024 0.278-0.070 0.348-0.139 0.067-0.066 0.095-0.143 0.082-0.23-0.010-0.069-0.039-0.119-0.086-0.152-0.049-0.032-0.11-0.055-0.182-0.068-0.074-0.010-0.153-0.016-0.238-0.018-0.087-0.001-0.173-0.006-0.258-0.015-0.087-0.006-0.168-0.021-0.242-0.045-0.076-0.022-0.139-0.060-0.189-0.116-0.052-0.053-0.086-0.129-0.1-0.227-0.016-0.105 0.001-0.201 0.049-0.288 0.046-0.084 0.122-0.156 0.228-0.216 0.104-0.057 0.235-0.098 0.393-0.121z"></path>
<path fill="#fff" style="fill: var(--color1, #fff)" d="M15.845 30.552c-0.148-0.001-0.277-0.031-0.388-0.090-0.113-0.056-0.2-0.143-0.262-0.259-0.064-0.116-0.095-0.262-0.094-0.438l0.008-1.058 0.246 0.002-0.008 1.034c-0.001 0.192 0.046 0.337 0.142 0.435 0.094 0.1 0.228 0.151 0.401 0.152 0.13 0.001 0.243-0.025 0.341-0.077 0.095-0.050 0.17-0.125 0.224-0.224 0.052-0.097 0.078-0.215 0.079-0.353l0.007-0.958 0.246 0.002-0.020 2.574-0.246-0.002 0.010-1.252 0.048 0.094c-0.059 0.131-0.152 0.234-0.28 0.306-0.128 0.075-0.28 0.112-0.455 0.111z"></path>
<path fill="#fff" style="fill: var(--color1, #fff)" d="M13.76 28.499c0.173 0.032 0.322 0.099 0.446 0.201 0.122 0.105 0.21 0.232 0.265 0.384 0.054 0.153 0.065 0.319 0.033 0.496-0.033 0.18-0.102 0.331-0.206 0.453s-0.232 0.209-0.383 0.262c-0.151 0.052-0.314 0.063-0.489 0.031-0.177-0.033-0.327-0.1-0.45-0.202-0.125-0.103-0.213-0.229-0.266-0.38-0.055-0.151-0.066-0.317-0.033-0.496 0.032-0.178 0.101-0.328 0.206-0.453 0.102-0.122 0.23-0.211 0.384-0.265 0.153-0.052 0.317-0.062 0.492-0.030zM13.72 28.714c-0.13-0.024-0.25-0.016-0.36 0.022-0.111 0.041-0.204 0.108-0.28 0.203-0.079 0.096-0.131 0.214-0.156 0.353-0.026 0.141-0.019 0.269 0.021 0.385 0.038 0.115 0.101 0.21 0.191 0.285 0.089 0.077 0.198 0.128 0.325 0.151s0.247 0.014 0.358-0.026c0.111-0.039 0.205-0.105 0.283-0.199s0.13-0.211 0.156-0.352c0.025-0.139 0.018-0.267-0.021-0.385-0.040-0.115-0.105-0.212-0.194-0.29-0.090-0.075-0.197-0.124-0.322-0.147z"></path>
<path fill="#fff" style="fill: var(--color1, #fff)" d="M11.543 27.891c0.147 0.055 0.268 0.138 0.363 0.249 0.094 0.114 0.152 0.248 0.176 0.402 0.021 0.156-0.003 0.327-0.072 0.514s-0.162 0.331-0.279 0.433c-0.118 0.104-0.249 0.168-0.393 0.191s-0.291 0.007-0.441-0.049c-0.163-0.060-0.294-0.151-0.395-0.272-0.104-0.12-0.168-0.259-0.192-0.419-0.025-0.157-0.006-0.322 0.057-0.493 0.064-0.174 0.158-0.312 0.28-0.414s0.262-0.167 0.419-0.192c0.155-0.026 0.314-0.009 0.477 0.051zM12.653 27.604l-0.868 2.339-0.221-0.082 0.191-0.514 0.149-0.333 0.095-0.357 0.422-1.139 0.231 0.086zM11.484 28.103c-0.121-0.045-0.24-0.058-0.355-0.040-0.116 0.021-0.221 0.071-0.315 0.15-0.094 0.081-0.166 0.188-0.215 0.32s-0.064 0.259-0.045 0.38 0.066 0.227 0.141 0.319c0.075 0.092 0.172 0.16 0.294 0.205s0.241 0.057 0.36 0.037c0.116-0.021 0.221-0.071 0.315-0.15 0.091-0.080 0.161-0.186 0.21-0.318s0.065-0.259 0.049-0.381c-0.019-0.121-0.066-0.227-0.141-0.319-0.077-0.090-0.177-0.158-0.298-0.203z"></path>
<path fill="#fff" style="fill: var(--color1, #fff)" d="M7.697 27.95c-0.122-0.084-0.212-0.182-0.27-0.293-0.061-0.11-0.085-0.231-0.070-0.361 0.013-0.132 0.069-0.27 0.17-0.414l0.604-0.869 0.202 0.141-0.59 0.849c-0.109 0.158-0.152 0.304-0.128 0.439 0.021 0.136 0.103 0.253 0.246 0.352 0.106 0.074 0.215 0.117 0.325 0.128 0.107 0.012 0.211-0.007 0.311-0.059 0.097-0.051 0.185-0.133 0.265-0.247l0.546-0.787 0.202 0.141-1.039 1.496-0.194-0.135 0.285-0.41-0.022 0.099c-0.123 0.075-0.257 0.107-0.404 0.095-0.148-0.010-0.294-0.065-0.439-0.165z"></path>
<path fill="#fff" style="fill: var(--color1, #fff)" d="M7.135 25.083c0.125 0.123 0.21 0.263 0.256 0.418 0.042 0.155 0.043 0.311 0.003 0.466-0.041 0.157-0.125 0.3-0.252 0.429-0.128 0.13-0.27 0.216-0.425 0.258s-0.31 0.042-0.464 0.001c-0.154-0.041-0.295-0.125-0.421-0.25-0.129-0.127-0.215-0.267-0.258-0.42-0.045-0.155-0.047-0.31-0.006-0.464 0.040-0.156 0.124-0.299 0.252-0.429 0.127-0.128 0.268-0.215 0.425-0.258 0.153-0.044 0.309-0.045 0.466-0.003 0.156 0.043 0.297 0.127 0.424 0.252zM6.982 25.239c-0.094-0.093-0.197-0.154-0.311-0.184-0.115-0.029-0.23-0.025-0.346 0.010-0.119 0.035-0.228 0.103-0.327 0.204-0.101 0.102-0.167 0.212-0.199 0.33-0.034 0.116-0.034 0.231-0.002 0.344 0.030 0.114 0.092 0.217 0.184 0.308s0.196 0.151 0.311 0.179c0.113 0.030 0.228 0.029 0.346-0.005s0.227-0.101 0.327-0.204c0.099-0.101 0.165-0.211 0.199-0.33 0.032-0.118 0.033-0.234 0.002-0.349-0.032-0.113-0.093-0.214-0.184-0.303z"></path>
<path fill="#fff" style="fill: var(--color1, #fff)" d="M5.965 23.838l-1.116 1.595-0.133-0.195 1.043-1.469 0.061 0.089-1.757 0.424-0.119-0.175 1.037-1.478 0.061 0.089-1.753 0.43-0.127-0.186 1.894-0.458 0.131 0.192-0.967 1.401-0.041-0.060 1.659-0.39 0.131 0.192z"></path>
<path fill="#fff" style="fill: var(--color1, #fff)" d="M4.116 20.45c0.052 0.141 0.082 0.281 0.090 0.422 0.005 0.141-0.009 0.259-0.043 0.353l-0.221-0.037c0.026-0.089 0.039-0.195 0.038-0.317-0.003-0.122-0.027-0.243-0.071-0.362-0.060-0.163-0.129-0.27-0.205-0.323-0.079-0.052-0.16-0.063-0.245-0.031-0.063 0.023-0.104 0.062-0.123 0.116-0.022 0.053-0.030 0.115-0.023 0.186 0.005 0.072 0.015 0.151 0.032 0.236s0.031 0.171 0.044 0.258c0.012 0.084 0.013 0.165 0.005 0.242-0.011 0.078-0.037 0.148-0.081 0.211-0.044 0.061-0.115 0.109-0.212 0.145-0.093 0.035-0.186 0.040-0.279 0.015s-0.179-0.079-0.257-0.164c-0.081-0.086-0.149-0.201-0.203-0.347-0.041-0.111-0.067-0.227-0.078-0.349-0.013-0.121-0.009-0.226 0.012-0.316l0.223 0.032c-0.024 0.095-0.031 0.19-0.020 0.285 0.008 0.096 0.029 0.187 0.061 0.274 0.057 0.154 0.126 0.258 0.208 0.312 0.079 0.052 0.159 0.063 0.242 0.033 0.065-0.024 0.109-0.063 0.131-0.115 0.022-0.055 0.031-0.119 0.029-0.192-0.005-0.075-0.016-0.153-0.032-0.236-0.017-0.085-0.030-0.17-0.039-0.256-0.012-0.087-0.014-0.168-0.006-0.246 0.005-0.079 0.030-0.148 0.074-0.209 0.041-0.062 0.108-0.11 0.202-0.145 0.1-0.037 0.197-0.041 0.292-0.012 0.092 0.028 0.178 0.087 0.259 0.178 0.078 0.090 0.144 0.209 0.2 0.359z"></path>
<path fill="#fff" style="fill: var(--color1, #fff)" d="M1.748 18.896c-0.029-0.145-0.027-0.278 0.008-0.398 0.032-0.122 0.098-0.225 0.199-0.309 0.101-0.086 0.237-0.147 0.409-0.182l1.037-0.21 0.049 0.241-1.013 0.205c-0.188 0.038-0.32 0.114-0.396 0.229-0.079 0.113-0.101 0.254-0.066 0.424 0.026 0.127 0.074 0.233 0.146 0.317 0.069 0.083 0.157 0.14 0.265 0.173 0.105 0.031 0.226 0.032 0.362 0.005l0.939-0.19 0.049 0.241-2.523 0.511-0.049-0.242 1.228-0.249-0.082 0.066c-0.141-0.031-0.26-0.101-0.358-0.211-0.1-0.109-0.168-0.25-0.203-0.423z"></path>
<path fill="#fff" style="fill: var(--color1, #fff)" d="M3.326 16.435c0.005 0.176-0.030 0.335-0.105 0.478-0.077 0.141-0.184 0.254-0.321 0.338-0.139 0.085-0.298 0.13-0.479 0.134-0.183 0.005-0.344-0.031-0.485-0.108s-0.253-0.184-0.335-0.321c-0.082-0.137-0.126-0.294-0.131-0.472-0.005-0.18 0.030-0.341 0.105-0.482 0.075-0.143 0.181-0.256 0.317-0.338 0.137-0.085 0.296-0.129 0.479-0.134 0.18-0.005 0.342 0.031 0.485 0.108 0.141 0.075 0.254 0.182 0.338 0.321 0.082 0.139 0.126 0.297 0.131 0.475zM3.108 16.441c-0.004-0.132-0.036-0.248-0.096-0.348-0.063-0.1-0.148-0.178-0.256-0.233-0.11-0.057-0.236-0.084-0.377-0.080-0.143 0.004-0.267 0.037-0.372 0.1-0.105 0.061-0.185 0.143-0.24 0.246-0.057 0.103-0.084 0.22-0.081 0.349s0.037 0.244 0.1 0.344c0.061 0.1 0.145 0.179 0.253 0.236s0.234 0.084 0.377 0.080c0.141-0.004 0.265-0.037 0.372-0.1 0.105-0.063 0.186-0.146 0.243-0.25 0.055-0.103 0.081-0.219 0.077-0.346z"></path>
<path fill="#fff" style="fill: var(--color1, #fff)" d="M3.46 14.124c-0.023 0.156-0.079 0.291-0.169 0.407-0.092 0.115-0.211 0.2-0.357 0.256-0.148 0.053-0.321 0.065-0.517 0.036s-0.357-0.090-0.482-0.183c-0.127-0.093-0.216-0.208-0.268-0.345s-0.067-0.283-0.044-0.441c0.025-0.172 0.087-0.319 0.185-0.443 0.096-0.126 0.219-0.218 0.37-0.275 0.149-0.058 0.314-0.073 0.494-0.046 0.183 0.027 0.338 0.089 0.463 0.187s0.217 0.221 0.275 0.37c0.058 0.146 0.074 0.306 0.049 0.477zM3.972 15.149l-2.468-0.363 0.034-0.233 0.542 0.080 0.357 0.077 0.369 0.019 1.201 0.177-0.036 0.244zM3.242 14.109c0.019-0.128 0.007-0.247-0.035-0.356-0.045-0.109-0.115-0.202-0.212-0.277-0.099-0.075-0.218-0.123-0.358-0.144s-0.266-0.009-0.381 0.035c-0.114 0.044-0.208 0.112-0.283 0.204s-0.121 0.202-0.14 0.33c-0.019 0.128-0.006 0.248 0.038 0.36 0.045 0.109 0.115 0.202 0.212 0.277 0.097 0.073 0.215 0.119 0.355 0.14s0.267 0.010 0.383-0.031c0.114-0.044 0.208-0.112 0.283-0.204 0.072-0.095 0.118-0.206 0.137-0.334z"></path>
<path fill="#fff" style="fill: var(--color1, #fff)" d="M2.613 10.342c0.058-0.136 0.135-0.244 0.231-0.324 0.095-0.083 0.208-0.13 0.339-0.143 0.132-0.015 0.279 0.012 0.441 0.081l0.975 0.412-0.096 0.227-0.952-0.403c-0.177-0.075-0.329-0.086-0.456-0.035-0.129 0.049-0.227 0.153-0.294 0.313-0.050 0.119-0.070 0.234-0.059 0.344 0.010 0.107 0.050 0.205 0.121 0.292 0.070 0.085 0.168 0.154 0.296 0.208l0.882 0.373-0.096 0.227-1.678-0.71 0.092-0.217 0.46 0.195-0.101-0.001c-0.099-0.105-0.158-0.23-0.176-0.376-0.021-0.147 0.003-0.301 0.072-0.463z"></path>
<path fill="#fff" style="fill: var(--color1, #fff)" d="M5.302 9.207c-0.095 0.148-0.215 0.259-0.357 0.335-0.143 0.073-0.295 0.105-0.456 0.098-0.162-0.009-0.319-0.062-0.471-0.16-0.153-0.099-0.267-0.22-0.339-0.364s-0.104-0.295-0.095-0.454c0.009-0.159 0.062-0.314 0.159-0.463 0.098-0.152 0.218-0.264 0.359-0.338 0.143-0.076 0.294-0.109 0.453-0.1 0.161 0.007 0.318 0.061 0.471 0.16 0.152 0.098 0.265 0.219 0.339 0.364 0.074 0.141 0.106 0.293 0.098 0.456-0.011 0.161-0.064 0.317-0.161 0.466zM5.119 9.088c0.072-0.111 0.111-0.225 0.117-0.341 0.005-0.118-0.022-0.23-0.080-0.337-0.059-0.11-0.147-0.203-0.266-0.279-0.12-0.078-0.242-0.12-0.364-0.128-0.121-0.009-0.233 0.013-0.337 0.067-0.106 0.053-0.194 0.134-0.264 0.242s-0.108 0.222-0.113 0.34c-0.007 0.117 0.018 0.229 0.075 0.338s0.145 0.201 0.266 0.279c0.119 0.077 0.24 0.119 0.364 0.128 0.122 0.007 0.236-0.016 0.342-0.068 0.104-0.054 0.19-0.135 0.259-0.241z"></path>
<path fill="#fff" style="fill: var(--color1, #fff)" d="M6.277 7.809l-1.788-0.77 0.164-0.17 1.65 0.723-0.075 0.077-0.771-1.635 0.147-0.152 1.657 0.716-0.075 0.077-0.776-1.63 0.157-0.162 0.832 1.761-0.161 0.167-1.568-0.663 0.051-0.052 0.718 1.545-0.161 0.167z"></path>
<path fill="#fff" style="fill: var(--color1, #fff)" d="M9.187 5.322c-0.127 0.080-0.259 0.139-0.394 0.175-0.137 0.034-0.255 0.045-0.354 0.031l-0.010-0.224c0.092 0.007 0.198-0.002 0.318-0.029 0.119-0.028 0.232-0.077 0.34-0.145 0.147-0.093 0.238-0.182 0.274-0.267 0.035-0.088 0.028-0.17-0.020-0.246-0.036-0.057-0.082-0.089-0.139-0.097-0.056-0.011-0.119-0.006-0.187 0.016-0.070 0.019-0.145 0.046-0.224 0.080s-0.161 0.066-0.243 0.096c-0.080 0.029-0.159 0.047-0.236 0.055-0.078 0.006-0.153-0.006-0.223-0.035-0.069-0.031-0.131-0.090-0.186-0.178-0.053-0.084-0.077-0.174-0.072-0.27s0.041-0.191 0.107-0.285c0.067-0.097 0.166-0.187 0.298-0.27 0.1-0.063 0.208-0.112 0.325-0.148 0.116-0.038 0.22-0.055 0.311-0.053l0.015 0.225c-0.098-0.004-0.192 0.009-0.283 0.039-0.092 0.028-0.177 0.066-0.255 0.116-0.139 0.088-0.226 0.177-0.262 0.268-0.035 0.088-0.029 0.169 0.018 0.243 0.037 0.059 0.084 0.094 0.14 0.105 0.058 0.010 0.123 0.006 0.194-0.011 0.072-0.021 0.147-0.047 0.224-0.080 0.080-0.034 0.16-0.064 0.242-0.091 0.082-0.030 0.162-0.049 0.239-0.057 0.078-0.011 0.151-0.001 0.22 0.030 0.069 0.027 0.13 0.083 0.184 0.167 0.057 0.090 0.081 0.184 0.072 0.283-0.008 0.095-0.048 0.192-0.121 0.29-0.072 0.094-0.175 0.184-0.31 0.269z"></path>
<path fill="#fff" style="fill: var(--color1, #fff)" d="M10.256 2.661c0.136-0.059 0.266-0.083 0.391-0.074 0.126 0.006 0.241 0.050 0.344 0.131 0.105 0.080 0.193 0.201 0.263 0.363l0.42 0.972-0.226 0.098-0.41-0.949c-0.076-0.176-0.178-0.29-0.306-0.34-0.127-0.054-0.269-0.046-0.429 0.023-0.119 0.051-0.212 0.121-0.281 0.208-0.067 0.084-0.105 0.183-0.114 0.295-0.008 0.109 0.015 0.228 0.070 0.355l0.38 0.879-0.226 0.098-1.021-2.364 0.226-0.098 0.497 1.15-0.082-0.067c0.001-0.144 0.045-0.275 0.132-0.394 0.087-0.121 0.21-0.216 0.372-0.285z"></path>
<path fill="#fff" style="fill: var(--color1, #fff)" d="M12.951 3.707c-0.171 0.041-0.334 0.039-0.49-0.004-0.154-0.047-0.286-0.128-0.397-0.244-0.112-0.118-0.188-0.265-0.23-0.441-0.042-0.178-0.040-0.344 0.006-0.497s0.128-0.285 0.245-0.394c0.117-0.109 0.262-0.184 0.435-0.225 0.176-0.042 0.34-0.041 0.493 0.004 0.155 0.044 0.288 0.124 0.396 0.241 0.111 0.116 0.188 0.263 0.23 0.441 0.042 0.176 0.040 0.341-0.006 0.497-0.044 0.153-0.126 0.286-0.244 0.397-0.119 0.109-0.265 0.185-0.438 0.226zM12.9 3.494c0.128-0.031 0.235-0.086 0.321-0.166 0.085-0.082 0.143-0.182 0.175-0.299 0.033-0.12 0.034-0.248 0.001-0.385-0.033-0.139-0.092-0.254-0.175-0.344-0.081-0.090-0.178-0.151-0.29-0.184-0.113-0.035-0.232-0.037-0.358-0.007s-0.232 0.086-0.317 0.168c-0.086 0.080-0.145 0.179-0.179 0.296s-0.034 0.246-0.001 0.385c0.033 0.137 0.091 0.252 0.175 0.344 0.083 0.090 0.181 0.152 0.294 0.187 0.112 0.033 0.231 0.034 0.354 0.005z"></path>
<path fill="#fff" style="fill: var(--color1, #fff)" d="M15.192 3.363c-0.157 0.010-0.301-0.017-0.433-0.081-0.132-0.066-0.24-0.165-0.324-0.296-0.082-0.134-0.13-0.3-0.142-0.499s0.014-0.368 0.080-0.509c0.065-0.143 0.159-0.254 0.282-0.334s0.264-0.124 0.423-0.134c0.173-0.011 0.33 0.019 0.471 0.089 0.143 0.068 0.258 0.169 0.346 0.305 0.087 0.134 0.136 0.292 0.147 0.474 0.011 0.185-0.018 0.349-0.088 0.492s-0.172 0.259-0.305 0.346c-0.131 0.087-0.284 0.136-0.457 0.146zM14.294 4.076l-0.154-2.49 0.236-0.015 0.034 0.547-0.002 0.365 0.057 0.365 0.075 1.212-0.246 0.015zM15.161 3.146c0.129-0.008 0.243-0.044 0.341-0.108 0.098-0.066 0.174-0.154 0.227-0.264 0.053-0.112 0.076-0.239 0.067-0.38s-0.046-0.263-0.113-0.365c-0.067-0.103-0.153-0.181-0.258-0.234s-0.223-0.077-0.352-0.069c-0.129 0.008-0.244 0.045-0.344 0.112-0.098 0.066-0.174 0.154-0.227 0.264-0.051 0.11-0.072 0.235-0.064 0.376s0.045 0.264 0.11 0.369c0.067 0.103 0.153 0.181 0.258 0.234 0.107 0.051 0.226 0.073 0.355 0.065z"></path>
<path fill="#fff" style="fill: var(--color1, #fff)" d="M18.801 1.751c0.145 0.028 0.267 0.081 0.365 0.159 0.101 0.076 0.171 0.177 0.21 0.302 0.041 0.126 0.046 0.275 0.012 0.448l-0.202 1.039-0.242-0.047 0.198-1.015c0.037-0.188 0.017-0.34-0.060-0.454-0.074-0.116-0.196-0.19-0.367-0.223-0.127-0.025-0.244-0.020-0.349 0.013-0.103 0.032-0.19 0.091-0.261 0.179-0.069 0.086-0.116 0.197-0.143 0.333l-0.183 0.94-0.242-0.047 0.348-1.788 0.232 0.045-0.096 0.49-0.020-0.099c0.082-0.118 0.192-0.202 0.331-0.25 0.14-0.051 0.296-0.059 0.468-0.026z"></path>
<path fill="#fff" style="fill: var(--color1, #fff)" d="M20.456 4.142c-0.164-0.063-0.298-0.156-0.402-0.28-0.101-0.125-0.164-0.267-0.19-0.426-0.025-0.161-0.005-0.325 0.060-0.494 0.065-0.171 0.161-0.306 0.286-0.407s0.267-0.163 0.424-0.186c0.158-0.024 0.32-0.004 0.486 0.060 0.168 0.065 0.303 0.159 0.405 0.282 0.104 0.124 0.167 0.265 0.191 0.423 0.026 0.159 0.006 0.323-0.060 0.494-0.065 0.168-0.16 0.304-0.286 0.407-0.123 0.101-0.265 0.165-0.426 0.19-0.16 0.023-0.323 0.002-0.489-0.061zM20.535 3.938c0.123 0.047 0.242 0.062 0.358 0.045 0.117-0.020 0.221-0.069 0.313-0.147 0.095-0.080 0.168-0.186 0.219-0.318 0.051-0.134 0.068-0.261 0.050-0.382-0.016-0.12-0.061-0.225-0.135-0.316-0.073-0.093-0.171-0.162-0.292-0.209s-0.24-0.060-0.356-0.040c-0.116 0.018-0.221 0.065-0.315 0.143s-0.167 0.184-0.218 0.318c-0.051 0.132-0.067 0.259-0.050 0.382 0.018 0.121 0.064 0.228 0.137 0.32 0.074 0.090 0.171 0.158 0.29 0.204z"></path>
<path fill="#fff" style="fill: var(--color1, #fff)" d="M22.066 4.828l0.391-1.907 0.2 0.126-0.374 1.762-0.091-0.057 1.445-1.086 0.179 0.113-0.365 1.768-0.091-0.057 1.439-1.090 0.191 0.12-1.556 1.172-0.197-0.124 0.332-1.67 0.062 0.039-1.368 1.016-0.197-0.124z"></path>
<path fill="#fff" style="fill: var(--color1, #fff)" d="M25.095 7.18c-0.104-0.108-0.188-0.225-0.251-0.351-0.061-0.127-0.095-0.241-0.102-0.34l0.217-0.055c0.012 0.092 0.042 0.194 0.093 0.306 0.052 0.111 0.122 0.212 0.21 0.303 0.12 0.125 0.226 0.196 0.318 0.214 0.093 0.016 0.172-0.007 0.237-0.069 0.048-0.047 0.070-0.098 0.067-0.156-0.001-0.057-0.018-0.117-0.053-0.18-0.033-0.064-0.075-0.132-0.124-0.203s-0.097-0.144-0.143-0.219c-0.044-0.073-0.078-0.146-0.101-0.22-0.022-0.076-0.025-0.151-0.011-0.226 0.016-0.073 0.061-0.146 0.136-0.218 0.072-0.069 0.155-0.111 0.25-0.125s0.195 0.001 0.301 0.047c0.109 0.046 0.217 0.125 0.324 0.237 0.082 0.085 0.152 0.181 0.211 0.288 0.060 0.106 0.099 0.204 0.115 0.294l-0.217 0.060c-0.016-0.097-0.048-0.187-0.096-0.269-0.046-0.084-0.101-0.16-0.165-0.226-0.114-0.118-0.219-0.186-0.315-0.202-0.093-0.016-0.171 0.006-0.234 0.067-0.050 0.048-0.075 0.101-0.074 0.158 0.002 0.059 0.019 0.121 0.051 0.187 0.035 0.066 0.076 0.134 0.124 0.203 0.050 0.071 0.096 0.144 0.138 0.218 0.046 0.074 0.081 0.149 0.104 0.223 0.027 0.074 0.032 0.148 0.016 0.221-0.013 0.073-0.055 0.145-0.126 0.214-0.077 0.074-0.164 0.116-0.263 0.128-0.095 0.011-0.198-0.008-0.308-0.060-0.107-0.051-0.216-0.134-0.327-0.249z"></path>
<path fill="#fff" style="fill: var(--color1, #fff)" d="M27.897 7.66c0.085 0.121 0.136 0.244 0.153 0.368 0.020 0.125 0.001 0.246-0.058 0.363-0.057 0.12-0.157 0.23-0.301 0.331l-0.865 0.61-0.142-0.201 0.845-0.596c0.157-0.111 0.247-0.234 0.27-0.369 0.027-0.135-0.010-0.273-0.11-0.415-0.075-0.106-0.162-0.183-0.261-0.232-0.096-0.048-0.2-0.065-0.312-0.051-0.109 0.014-0.22 0.062-0.333 0.142l-0.783 0.552-0.142-0.201 2.104-1.484 0.142 0.201-1.024 0.722 0.049-0.094c0.141-0.029 0.279-0.012 0.413 0.049 0.136 0.060 0.254 0.162 0.355 0.305z"></path>
<path fill="#fff" style="fill: var(--color1, #fff)" d="M27.442 10.54c-0.075-0.159-0.107-0.319-0.096-0.48 0.014-0.16 0.066-0.306 0.157-0.439 0.093-0.133 0.221-0.239 0.384-0.316 0.165-0.078 0.328-0.11 0.488-0.096s0.305 0.067 0.436 0.159 0.234 0.218 0.31 0.38c0.077 0.163 0.11 0.324 0.098 0.483-0.011 0.161-0.062 0.307-0.154 0.437-0.091 0.132-0.219 0.238-0.384 0.316-0.163 0.077-0.326 0.109-0.488 0.096-0.159-0.012-0.305-0.064-0.439-0.157-0.131-0.094-0.235-0.222-0.311-0.383zM27.64 10.447c0.056 0.119 0.132 0.213 0.228 0.28 0.098 0.066 0.207 0.103 0.328 0.11 0.124 0.008 0.25-0.018 0.377-0.078 0.13-0.061 0.23-0.142 0.3-0.242 0.072-0.098 0.112-0.205 0.12-0.322 0.011-0.118-0.011-0.235-0.067-0.352s-0.132-0.209-0.23-0.275c-0.096-0.067-0.205-0.105-0.327-0.114s-0.248 0.017-0.377 0.078c-0.128 0.060-0.228 0.141-0.3 0.242-0.071 0.1-0.111 0.209-0.122 0.326-0.009 0.117 0.014 0.233 0.068 0.348z"></path>
<path fill="#fff" style="fill: var(--color1, #fff)" d="M28.235 12.664c-0.042-0.152-0.045-0.298-0.009-0.44 0.038-0.142 0.112-0.268 0.223-0.378 0.114-0.108 0.267-0.189 0.459-0.241s0.363-0.062 0.515-0.026c0.153 0.035 0.282 0.104 0.384 0.207s0.176 0.232 0.218 0.386c0.046 0.167 0.049 0.327 0.010 0.48-0.037 0.154-0.113 0.288-0.228 0.401-0.113 0.113-0.258 0.193-0.434 0.242-0.178 0.049-0.345 0.054-0.5 0.015s-0.288-0.115-0.401-0.228c-0.112-0.111-0.191-0.25-0.237-0.417zM27.353 11.931l2.406-0.662 0.062 0.227-0.529 0.145-0.358 0.073-0.345 0.131-1.171 0.322-0.065-0.238zM28.441 12.59c0.034 0.125 0.093 0.229 0.176 0.312 0.085 0.082 0.187 0.138 0.305 0.168 0.121 0.029 0.249 0.025 0.385-0.012s0.248-0.099 0.334-0.185c0.087-0.086 0.146-0.186 0.177-0.3s0.029-0.234-0.005-0.358c-0.034-0.125-0.094-0.23-0.18-0.314-0.085-0.082-0.187-0.138-0.305-0.168-0.118-0.028-0.245-0.023-0.381 0.015s-0.249 0.098-0.338 0.183c-0.087 0.086-0.146 0.186-0.177 0.3-0.028 0.116-0.025 0.236 0.009 0.361z"></path>
</symbol>
<symbol id="icon-phone" viewBox="0 0 32 32">
<path d="M26.331 6.267l-3.346-3.344c-0.392-0.394-0.934-0.638-1.534-0.638s-1.142 0.244-1.534 0.638l-0 0-3.606 3.599c-0.394 0.393-0.638 0.936-0.638 1.537s0.244 1.144 0.638 1.537l2.816 2.818c-0.677 1.554-1.592 2.881-2.715 4l-0 0c-1.119 1.125-2.444 2.042-3.916 2.69l-0.082 0.032-2.815-2.819c-0.392-0.394-0.934-0.638-1.534-0.638s-1.142 0.244-1.534 0.638l-0 0-3.608 3.599c-0.394 0.393-0.638 0.936-0.638 1.537s0.244 1.144 0.638 1.537l3.344 3.343c0.697 0.697 1.659 1.097 2.647 1.097 0.205 0 0.402-0.016 0.603-0.050 4.16-0.686 8.29-2.901 11.625-6.232 3.331-3.337 5.544-7.466 6.235-11.63 0.031-0.181 0.049-0.389 0.049-0.602 0-1.034-0.419-1.97-1.096-2.647l0 0zM25.15 9.143c-0.613 3.705-2.606 7.4-5.607 10.401s-6.694 4.994-10.4 5.606c-0.071 0.012-0.152 0.019-0.235 0.019-0.409 0-0.778-0.166-1.046-0.434l-3.285-3.283 3.482-3.486 3.793 3.8 0.679-0.251c4.177-1.566 7.414-4.803 8.945-8.876l0.034-0.104 0.251-0.679-3.797-3.794 3.482-3.483 3.285 3.283c0.339 0.339 0.496 0.817 0.417 1.282z"></path>
</symbol>
</defs>
</svg>
