<svg aria-hidden="true" style="position: absolute; width: 0; height: 0; overflow: hidden;" version="1.1" xmlns="http://www.w3.org/2000/svg" xmlns:xlink="http://www.w3.org/1999/xlink">
<defs>
<symbol id="arrow-right" viewBox="0 0 50 32">
<path fill="none" stroke-linejoin="miter" stroke-linecap="butt" stroke-miterlimit="4" stroke-width="1.1852" d="M31.407 16c0 8.509-6.898 15.407-15.407 15.407s-15.407-6.898-15.407-15.407c0-8.509 6.898-15.407 15.407-15.407s15.407 6.898 15.407 15.407z"></path>
<path stroke="none" d="M49.012 15.826c0.231-0.231 0.231-0.607 0-0.838l-3.771-3.771c-0.231-0.231-0.607-0.231-0.838 0s-0.231 0.607 0 0.838l3.352 3.352-3.352 3.352c-0.231 0.231-0.231 0.607 0 0.838s0.607 0.231 0.838 0l3.771-3.771zM15.407 16h33.185v-1.185h-33.185v1.185z"></path>
</symbol>
<symbol id="arrow-left" viewBox="0 0 50 32">
<path fill="none" stroke-linejoin="miter" stroke-linecap="butt" stroke-miterlimit="4" stroke-width="1.1852" d="M49.185 16c0 8.509-6.898 15.407-15.407 15.407s-15.407-6.898-15.407-15.407c0-8.509 6.898-15.407 15.407-15.407s15.407 6.898 15.407 15.407z"></path>
<path stroke="none" d="M0.766 16.174c-0.231 0.231-0.231 0.607 0 0.838l3.771 3.771c0.231 0.231 0.607 0.231 0.838 0s0.231-0.607 0-0.838l-3.352-3.352 3.352-3.352c0.231-0.231 0.231-0.607 0-0.838s-0.607-0.231-0.838 0l-3.771 3.771zM1.185 17.185h33.185v-1.185h-33.185v1.185z"></path>
</symbol>
<!-- Колір змінюється через stroke -->
<symbol id="close" viewBox="0 0 32 32">
<path fill="none" stroke-linejoin="round" stroke-linecap="round" stroke-miterlimit="4" stroke-width="2.6667" d="M24 8l-16 16"></path>
<path fill="none" stroke-linejoin="round" stroke-linecap="round" stroke-miterlimit="4" stroke-width="2.6667" d="M8 8l16 16"></path>
</symbol>

<!-- Колір змінюється через fill -->
<symbol id="btn" viewBox="0 0 29 32">
<path d="M19.851 13.314c0.018-0.115-0.060-0.223-0.175-0.241l-1.871-0.296c-0.115-0.018-0.223 0.060-0.241 0.175s0.060 0.223 0.175 0.241l1.663 0.263-0.263 1.664c-0.018 0.115 0.060 0.223 0.175 0.241s0.223-0.060 0.241-0.175l0.296-1.871zM10.229 20.381l9.538-6.93-0.247-0.341-9.538 6.93 0.248 0.341z"></path>
<path d="M24.701 17.053c0.027-0.236 0.084-0.455 0.173-0.658 0.093-0.203 0.196-0.358 0.311-0.466l0.285 0.208c-0.1 0.106-0.193 0.246-0.279 0.42-0.082 0.174-0.134 0.361-0.157 0.561-0.031 0.272-0.011 0.472 0.059 0.601 0.074 0.129 0.181 0.202 0.322 0.218 0.105 0.012 0.191-0.014 0.256-0.076 0.069-0.058 0.124-0.14 0.165-0.246 0.045-0.105 0.086-0.224 0.123-0.355s0.077-0.263 0.122-0.394c0.044-0.127 0.099-0.242 0.166-0.345 0.070-0.102 0.158-0.182 0.264-0.24 0.105-0.054 0.239-0.072 0.403-0.054 0.156 0.017 0.291 0.077 0.404 0.177s0.195 0.238 0.245 0.413c0.053 0.179 0.066 0.389 0.039 0.632-0.021 0.185-0.067 0.367-0.139 0.546-0.068 0.18-0.149 0.325-0.242 0.436l-0.291-0.203c0.101-0.117 0.178-0.246 0.231-0.387 0.056-0.141 0.093-0.283 0.109-0.428 0.029-0.257 0.005-0.453-0.072-0.586-0.074-0.129-0.179-0.202-0.317-0.217-0.109-0.012-0.198 0.011-0.267 0.069-0.069 0.062-0.128 0.145-0.177 0.25-0.045 0.109-0.086 0.227-0.123 0.355-0.037 0.132-0.079 0.261-0.126 0.388-0.044 0.131-0.1 0.248-0.166 0.35-0.063 0.107-0.148 0.187-0.253 0.242-0.102 0.058-0.231 0.079-0.387 0.061-0.167-0.019-0.307-0.082-0.419-0.19-0.109-0.104-0.189-0.249-0.238-0.434-0.046-0.181-0.054-0.397-0.026-0.647z"></path>
<path d="M26.672 21.102c-0.087 0.217-0.206 0.389-0.356 0.518-0.148 0.133-0.325 0.212-0.531 0.236-0.208 0.027-0.44-0.011-0.698-0.114l-1.55-0.62 0.145-0.36 1.515 0.606c0.281 0.112 0.522 0.126 0.721 0.041 0.202-0.081 0.353-0.248 0.456-0.502 0.076-0.19 0.104-0.371 0.083-0.544-0.019-0.169-0.085-0.321-0.2-0.457-0.112-0.131-0.27-0.238-0.473-0.319l-1.403-0.561 0.145-0.361 3.771 1.508-0.145 0.361-1.835-0.734 0.166-0.016c0.159 0.162 0.255 0.358 0.289 0.587 0.037 0.231 0.004 0.475-0.1 0.732z"></path>
<path d="M22.514 22.446c0.175-0.215 0.382-0.369 0.619-0.463 0.238-0.089 0.482-0.114 0.733-0.075 0.254 0.041 0.491 0.152 0.712 0.331 0.224 0.182 0.38 0.391 0.469 0.628s0.113 0.479 0.070 0.727c-0.042 0.248-0.152 0.48-0.33 0.698-0.18 0.22-0.388 0.376-0.622 0.468-0.237 0.094-0.48 0.12-0.728 0.078-0.251-0.039-0.488-0.15-0.712-0.331-0.221-0.179-0.377-0.389-0.469-0.628-0.091-0.234-0.116-0.478-0.075-0.73 0.044-0.251 0.156-0.485 0.334-0.702zM22.782 22.663c-0.132 0.161-0.213 0.332-0.244 0.514-0.028 0.184-0.006 0.364 0.067 0.541 0.073 0.182 0.196 0.342 0.369 0.483 0.176 0.143 0.359 0.23 0.549 0.262 0.188 0.035 0.368 0.019 0.541-0.047 0.175-0.064 0.328-0.176 0.457-0.334s0.208-0.329 0.236-0.514c0.031-0.182 0.011-0.362-0.059-0.542s-0.193-0.34-0.369-0.483c-0.173-0.14-0.356-0.228-0.549-0.262-0.19-0.032-0.373-0.016-0.548 0.048-0.172 0.067-0.322 0.178-0.449 0.333z"></path>
<path d="M19.979 24.742c0.207-0.137 0.425-0.215 0.655-0.232 0.232-0.014 0.458 0.035 0.678 0.147 0.219 0.117 0.416 0.306 0.591 0.567s0.273 0.513 0.296 0.756c0.025 0.247-0.015 0.473-0.119 0.678s-0.261 0.378-0.471 0.517c-0.228 0.152-0.466 0.236-0.714 0.252-0.249 0.021-0.488-0.026-0.715-0.142-0.225-0.113-0.418-0.29-0.578-0.529-0.162-0.243-0.253-0.489-0.271-0.74s0.029-0.488 0.142-0.713c0.11-0.222 0.279-0.409 0.507-0.561zM20.638 23.060l2.19 3.27-0.31 0.206-0.481-0.719-0.288-0.499-0.368-0.452-1.066-1.592 0.324-0.215zM20.194 25.013c-0.17 0.113-0.297 0.252-0.38 0.417-0.081 0.168-0.114 0.348-0.1 0.54 0.016 0.195 0.087 0.385 0.21 0.57s0.272 0.321 0.444 0.408c0.172 0.087 0.352 0.125 0.538 0.115s0.365-0.072 0.535-0.185c0.17-0.113 0.297-0.255 0.381-0.424 0.081-0.168 0.114-0.348 0.1-0.54-0.017-0.19-0.088-0.377-0.212-0.562s-0.271-0.323-0.443-0.415c-0.172-0.087-0.352-0.125-0.538-0.115-0.188 0.015-0.366 0.079-0.536 0.193z"></path>
<path d="M16.254 29.188c-0.231 0.036-0.44 0.022-0.627-0.041-0.19-0.059-0.348-0.171-0.473-0.337-0.129-0.165-0.215-0.384-0.258-0.658l-0.257-1.65 0.384-0.059 0.251 1.612c0.047 0.299 0.157 0.513 0.332 0.641 0.172 0.132 0.393 0.177 0.664 0.136 0.202-0.031 0.372-0.1 0.511-0.206 0.136-0.102 0.233-0.237 0.291-0.405 0.056-0.164 0.067-0.354 0.033-0.57l-0.233-1.493 0.384-0.059 0.442 2.839-0.368 0.057-0.121-0.779 0.082 0.137c-0.058 0.22-0.177 0.402-0.358 0.548-0.18 0.15-0.407 0.246-0.681 0.288z"></path>
<path d="M12.936 26.308c0.274 0.040 0.513 0.138 0.715 0.293 0.198 0.158 0.344 0.355 0.438 0.59 0.094 0.239 0.12 0.499 0.078 0.78-0.042 0.285-0.142 0.527-0.301 0.725s-0.355 0.342-0.59 0.433c-0.235 0.091-0.491 0.116-0.769 0.075-0.282-0.041-0.522-0.139-0.72-0.294-0.202-0.155-0.348-0.35-0.439-0.585-0.094-0.235-0.12-0.495-0.078-0.78 0.042-0.282 0.142-0.523 0.301-0.725 0.155-0.199 0.352-0.345 0.591-0.439 0.238-0.090 0.497-0.115 0.775-0.074zM12.885 26.649c-0.206-0.030-0.395-0.012-0.567 0.055-0.173 0.071-0.316 0.182-0.431 0.335-0.119 0.156-0.195 0.344-0.227 0.564-0.033 0.224-0.015 0.426 0.054 0.605 0.066 0.179 0.171 0.326 0.317 0.439 0.145 0.117 0.319 0.191 0.521 0.22s0.39 0.009 0.562-0.061c0.172-0.067 0.318-0.177 0.436-0.329s0.194-0.34 0.227-0.564c0.033-0.22 0.014-0.422-0.054-0.605-0.069-0.18-0.176-0.328-0.321-0.446-0.146-0.114-0.318-0.185-0.516-0.214z"></path>
<path d="M10.539 25.818l-0.419 3.040-0.327-0.177 0.407-2.81 0.149 0.081-2.164 1.86-0.294-0.159 0.392-2.818 0.149 0.081-2.155 1.866-0.313-0.169 2.331-2.007 0.323 0.174-0.35 2.66-0.101-0.055 2.050-1.742 0.323 0.174z"></path>
<path d="M5.941 22.196c0.139 0.192 0.244 0.393 0.315 0.603 0.068 0.212 0.096 0.396 0.083 0.554l-0.352 0.037c0.003-0.146-0.023-0.312-0.077-0.498-0.057-0.184-0.144-0.357-0.262-0.52-0.16-0.222-0.31-0.357-0.449-0.405-0.142-0.046-0.27-0.028-0.386 0.055-0.086 0.062-0.132 0.138-0.139 0.228-0.012 0.089 0.003 0.187 0.043 0.293 0.038 0.108 0.087 0.223 0.148 0.345s0.12 0.246 0.175 0.373c0.053 0.123 0.090 0.246 0.11 0.366 0.017 0.123 0.006 0.241-0.034 0.355-0.041 0.111-0.129 0.214-0.262 0.31-0.127 0.092-0.267 0.138-0.419 0.14s-0.306-0.045-0.46-0.141c-0.16-0.096-0.311-0.243-0.455-0.441-0.109-0.151-0.198-0.316-0.265-0.497-0.071-0.178-0.109-0.34-0.114-0.484l0.353-0.045c0.004 0.155 0.034 0.302 0.090 0.441 0.053 0.142 0.122 0.272 0.208 0.39 0.152 0.21 0.301 0.338 0.448 0.386 0.142 0.046 0.269 0.029 0.381-0.052 0.089-0.064 0.139-0.141 0.151-0.23 0.010-0.092-0.003-0.194-0.037-0.304-0.040-0.111-0.089-0.226-0.148-0.345-0.061-0.122-0.117-0.246-0.168-0.372-0.056-0.126-0.093-0.25-0.113-0.371-0.025-0.121-0.017-0.238 0.025-0.348 0.036-0.112 0.118-0.213 0.246-0.305 0.136-0.098 0.283-0.145 0.439-0.14 0.151 0.004 0.307 0.058 0.469 0.162 0.156 0.104 0.308 0.257 0.456 0.461z"></path>
<path d="M1.753 20.529c-0.081-0.219-0.11-0.426-0.085-0.622 0.020-0.198 0.098-0.375 0.235-0.53 0.136-0.159 0.333-0.287 0.593-0.383l1.566-0.579 0.136 0.364-1.53 0.566c-0.284 0.105-0.471 0.256-0.562 0.453-0.095 0.195-0.095 0.42 0.001 0.677 0.071 0.192 0.173 0.345 0.305 0.459 0.127 0.112 0.279 0.181 0.456 0.205 0.172 0.022 0.36-0.005 0.566-0.081l1.417-0.524 0.136 0.364-3.809 1.409-0.136-0.364 1.853-0.685-0.112 0.123c-0.227-0.013-0.43-0.094-0.61-0.241-0.183-0.146-0.323-0.349-0.42-0.609z"></path>
<path d="M3.92 16.759c0.015 0.277-0.033 0.53-0.145 0.759-0.116 0.226-0.279 0.408-0.491 0.547-0.215 0.14-0.465 0.217-0.749 0.232-0.288 0.016-0.545-0.035-0.77-0.15s-0.406-0.28-0.542-0.492c-0.136-0.212-0.211-0.458-0.226-0.739-0.015-0.284 0.033-0.539 0.145-0.764 0.112-0.229 0.274-0.411 0.486-0.547 0.212-0.139 0.462-0.217 0.749-0.232 0.284-0.015 0.541 0.035 0.77 0.15 0.225 0.112 0.408 0.276 0.547 0.491 0.136 0.216 0.212 0.464 0.227 0.744zM3.575 16.778c-0.011-0.208-0.067-0.389-0.167-0.545-0.103-0.155-0.241-0.274-0.414-0.356-0.176-0.086-0.376-0.122-0.598-0.11-0.226 0.012-0.42 0.070-0.583 0.174-0.163 0.1-0.285 0.233-0.368 0.398-0.086 0.165-0.124 0.35-0.112 0.554s0.068 0.384 0.172 0.539c0.1 0.155 0.236 0.276 0.409 0.362s0.372 0.122 0.598 0.11c0.222-0.012 0.416-0.070 0.583-0.174 0.162-0.104 0.287-0.238 0.373-0.404 0.082-0.165 0.118-0.348 0.107-0.548z"></path>
<path d="M4.242 13.351c-0.061 0.241-0.17 0.445-0.329 0.612-0.162 0.166-0.362 0.282-0.601 0.346-0.241 0.060-0.514 0.052-0.818-0.024s-0.547-0.197-0.727-0.362c-0.184-0.166-0.306-0.361-0.367-0.583s-0.060-0.455 0.001-0.699c0.067-0.265 0.187-0.488 0.359-0.666 0.17-0.183 0.378-0.308 0.625-0.374 0.243-0.067 0.504-0.066 0.784 0.004 0.283 0.071 0.516 0.193 0.698 0.366s0.307 0.381 0.374 0.624c0.068 0.239 0.068 0.491 0.002 0.756zM4.884 15.040l-3.818-0.954 0.091-0.361 0.839 0.21 0.548 0.177 0.576 0.088 1.859 0.464-0.095 0.377zM3.901 13.294c0.050-0.198 0.050-0.386 0.001-0.564-0.053-0.179-0.149-0.334-0.289-0.467-0.143-0.134-0.323-0.227-0.539-0.281s-0.417-0.055-0.603-0.004-0.345 0.143-0.476 0.276c-0.131 0.133-0.222 0.298-0.272 0.496s-0.049 0.388 0.003 0.571c0.053 0.179 0.149 0.334 0.289 0.467 0.141 0.129 0.319 0.221 0.535 0.275s0.418 0.058 0.607 0.011c0.186-0.051 0.345-0.143 0.476-0.276 0.129-0.137 0.218-0.305 0.268-0.503z"></path>
<path d="M3.999 7.578c0.147-0.181 0.311-0.311 0.493-0.39 0.181-0.084 0.373-0.107 0.577-0.069 0.206 0.035 0.418 0.14 0.634 0.314l1.3 1.048-0.245 0.302-1.27-1.024c-0.236-0.19-0.462-0.274-0.678-0.251-0.216 0.018-0.411 0.133-0.583 0.345-0.129 0.159-0.209 0.324-0.24 0.496-0.032 0.167-0.013 0.332 0.056 0.495 0.069 0.159 0.188 0.306 0.359 0.444l1.176 0.948-0.245 0.302-2.237-1.803 0.235-0.289 0.614 0.495-0.153-0.046c-0.104-0.201-0.139-0.417-0.103-0.646 0.033-0.231 0.136-0.455 0.311-0.67z"></path>
<path d="M8.349 7.512c-0.23 0.154-0.473 0.242-0.727 0.263-0.253 0.016-0.494-0.031-0.723-0.141-0.231-0.113-0.426-0.288-0.585-0.524-0.161-0.239-0.25-0.485-0.267-0.737s0.032-0.491 0.144-0.716c0.112-0.225 0.285-0.415 0.519-0.572 0.236-0.159 0.48-0.247 0.731-0.267 0.254-0.021 0.494 0.024 0.72 0.137 0.229 0.11 0.424 0.285 0.585 0.524 0.159 0.236 0.248 0.482 0.267 0.737 0.019 0.251-0.027 0.491-0.141 0.721-0.115 0.227-0.29 0.419-0.523 0.575zM8.156 7.227c0.173-0.116 0.3-0.256 0.383-0.421 0.080-0.168 0.111-0.347 0.093-0.537-0.017-0.195-0.088-0.385-0.213-0.569-0.127-0.188-0.276-0.324-0.449-0.411-0.17-0.088-0.347-0.126-0.531-0.112-0.186 0.011-0.364 0.073-0.534 0.187s-0.295 0.255-0.375 0.423c-0.082 0.165-0.116 0.344-0.101 0.536s0.086 0.382 0.213 0.569c0.125 0.184 0.274 0.321 0.449 0.411 0.173 0.086 0.352 0.124 0.539 0.113 0.184-0.014 0.36-0.077 0.527-0.188z"></path>
<path d="M10.498 6.236l-1.733-2.537 0.362-0.087 1.588 2.358-0.165 0.040 0.354-2.828 0.325-0.079 1.604 2.355-0.165 0.040 0.343-2.826 0.346-0.084-0.379 3.048-0.356 0.086-1.529-2.209 0.112-0.027-0.349 2.664-0.356 0.086z"></path>
<path d="M16.333 5.834c-0.232-0.050-0.444-0.129-0.638-0.237-0.192-0.112-0.337-0.231-0.433-0.356l0.236-0.263c0.096 0.11 0.226 0.216 0.391 0.319 0.165 0.099 0.346 0.169 0.542 0.211 0.268 0.057 0.469 0.057 0.605 0.001 0.136-0.060 0.219-0.16 0.249-0.299 0.022-0.103 0.006-0.191-0.050-0.263-0.051-0.074-0.127-0.137-0.228-0.189-0.1-0.055-0.214-0.107-0.341-0.157s-0.254-0.103-0.38-0.16c-0.122-0.056-0.231-0.122-0.327-0.199-0.095-0.080-0.166-0.175-0.213-0.286-0.043-0.11-0.048-0.245-0.013-0.406 0.033-0.153 0.105-0.282 0.217-0.385s0.257-0.171 0.436-0.203c0.183-0.035 0.394-0.028 0.633 0.023 0.182 0.039 0.359 0.103 0.53 0.192 0.172 0.085 0.308 0.18 0.409 0.283l-0.232 0.27c-0.106-0.112-0.227-0.202-0.362-0.268-0.134-0.070-0.273-0.12-0.416-0.15-0.253-0.054-0.45-0.050-0.591 0.014-0.136 0.060-0.219 0.158-0.248 0.294-0.023 0.107-0.009 0.198 0.042 0.272 0.055 0.075 0.132 0.142 0.231 0.201 0.104 0.056 0.217 0.108 0.341 0.157 0.127 0.050 0.252 0.104 0.373 0.164 0.126 0.057 0.237 0.123 0.332 0.2 0.1 0.074 0.172 0.165 0.215 0.276 0.048 0.107 0.055 0.238 0.022 0.391-0.035 0.164-0.112 0.297-0.231 0.398-0.115 0.099-0.267 0.163-0.456 0.194-0.185 0.028-0.401 0.015-0.647-0.038z"></path>
<path d="M20.603 4.274c0.207 0.108 0.367 0.243 0.48 0.405 0.118 0.16 0.178 0.344 0.181 0.551 0.006 0.209-0.056 0.436-0.185 0.682l-0.776 1.478-0.345-0.18 0.758-1.444c0.141-0.268 0.179-0.506 0.114-0.712-0.060-0.208-0.211-0.375-0.454-0.502-0.181-0.094-0.359-0.14-0.534-0.136-0.17 0.002-0.329 0.053-0.476 0.153-0.142 0.099-0.265 0.245-0.366 0.439l-0.702 1.338-0.345-0.18 1.887-3.596 0.345 0.18-0.918 1.75 0.001-0.166c0.178-0.142 0.382-0.218 0.615-0.229 0.234-0.014 0.474 0.043 0.72 0.172z"></path>
<path d="M21.541 8.529c-0.197-0.195-0.331-0.415-0.402-0.659-0.065-0.244-0.066-0.489-0.003-0.734 0.066-0.248 0.2-0.472 0.401-0.674 0.203-0.204 0.428-0.339 0.673-0.404s0.49-0.065 0.733 0.001c0.243 0.066 0.465 0.198 0.664 0.396 0.202 0.2 0.338 0.421 0.406 0.663 0.071 0.245 0.073 0.488 0.007 0.73-0.064 0.245-0.197 0.47-0.401 0.674-0.201 0.202-0.425 0.336-0.673 0.404-0.243 0.068-0.488 0.069-0.737 0.003-0.246-0.069-0.469-0.202-0.668-0.399zM21.784 8.284c0.148 0.146 0.311 0.244 0.49 0.292 0.181 0.046 0.363 0.041 0.547-0.014 0.188-0.055 0.361-0.161 0.518-0.319 0.16-0.16 0.265-0.333 0.316-0.519 0.054-0.183 0.056-0.363 0.006-0.541-0.047-0.18-0.143-0.342-0.289-0.486s-0.308-0.238-0.489-0.284c-0.179-0.048-0.361-0.046-0.547 0.006s-0.359 0.158-0.518 0.319c-0.157 0.158-0.262 0.331-0.316 0.519-0.051 0.186-0.053 0.369-0.006 0.549 0.050 0.178 0.146 0.337 0.289 0.478z"></path>
<path d="M23.572 11.22c-0.118-0.218-0.174-0.443-0.17-0.673 0.008-0.232 0.078-0.452 0.211-0.659 0.138-0.206 0.345-0.383 0.621-0.531s0.538-0.222 0.783-0.22c0.248-0.001 0.47 0.061 0.665 0.184s0.352 0.296 0.472 0.517c0.13 0.241 0.191 0.485 0.184 0.734-0.002 0.25-0.072 0.482-0.209 0.696-0.134 0.213-0.328 0.387-0.582 0.523-0.257 0.138-0.512 0.204-0.764 0.198s-0.484-0.076-0.698-0.21c-0.212-0.131-0.382-0.317-0.512-0.558zM21.957 10.403l3.469-1.858 0.177 0.328-0.762 0.408-0.525 0.238-0.486 0.322-1.689 0.904-0.184-0.342zM23.863 11.034c0.097 0.18 0.224 0.319 0.38 0.417 0.16 0.097 0.336 0.147 0.529 0.151 0.196 0.003 0.392-0.049 0.589-0.154s0.346-0.239 0.449-0.402c0.103-0.163 0.158-0.337 0.166-0.523s-0.037-0.369-0.134-0.549c-0.097-0.18-0.226-0.32-0.388-0.419-0.16-0.097-0.336-0.147-0.529-0.151-0.191-0.001-0.385 0.051-0.581 0.156s-0.348 0.238-0.456 0.4c-0.103 0.163-0.158 0.337-0.166 0.523-0.003 0.188 0.045 0.371 0.142 0.551z"></path>
</symbol>
<symbol id="burger" viewBox="0 0 32 32">
<path fill="#000" d="M4 5.333h24v2.667h-24v-2.667zM12 14.667h16v2.667h-16v-2.667zM4 24h24v2.667h-24v-2.667z"></path>
</symbol>
<symbol id="facebook" viewBox="0 0 32 32">
<path fill="none" stroke="#fff" style="stroke: var(--color6, #fff)" stroke-linejoin="round" stroke-linecap="round" stroke-miterlimit="4" stroke-width="2.2857" d="M24 2.667h-4c-1.768 0-3.464 0.702-4.714 1.953s-1.953 2.946-1.953 4.714v4h-4v5.333h4v10.667h5.333v-10.667h4l1.333-5.333h-5.333v-4c0-0.354 0.14-0.693 0.39-0.943s0.589-0.391 0.943-0.391h4v-5.333z"></path>
</symbol>
<symbol id="instagram" viewBox="0 0 32 32">
<path fill="none" stroke="#fff" style="stroke: var(--color6, #fff)" stroke-linejoin="round" stroke-linecap="round" stroke-miterlimit="4" stroke-width="2.2857" d="M22.666 2.667h-13.333c-3.682 0-6.667 2.985-6.667 6.667v13.333c0 3.682 2.985 6.667 6.667 6.667h13.333c3.682 0 6.667-2.985 6.667-6.667v-13.333c0-3.682-2.985-6.667-6.667-6.667z"></path>
<path fill="none" stroke="#fff" style="stroke: var(--color6, #fff)" stroke-linejoin="round" stroke-linecap="round" stroke-miterlimit="4" stroke-width="2.2857" d="M21.333 15.16c0.164 1.11-0.025 2.243-0.542 3.239s-1.334 1.803-2.336 2.308c-1.002 0.504-2.137 0.68-3.245 0.502s-2.131-0.701-2.924-1.494c-0.793-0.793-1.316-1.816-1.494-2.924s-0.003-2.243 0.502-3.245c0.504-1.002 1.312-1.82 2.307-2.336s2.129-0.706 3.239-0.542c1.132 0.168 2.18 0.695 2.989 1.504s1.337 1.857 1.504 2.989z"></path>
<path fill="none" stroke="#fff" style="stroke: var(--color6, #fff)" stroke-linejoin="round" stroke-linecap="round" stroke-miterlimit="4" stroke-width="2.2857" d="M23.334 8.667h0.013"></path>
</symbol>
<symbol id="logo" viewBox="0 0 41 32">
<path d="M16.241 31.144v-4.916l-0.219-0.922v-8.384c0-1.785-0.527-3.16-1.58-4.126-1.024-0.995-2.575-1.492-4.653-1.492-1.375 0-2.721 0.234-4.038 0.702-1.317 0.439-2.429 1.039-3.336 1.8l-1.756-3.161c1.2-0.966 2.634-1.697 4.302-2.195 1.697-0.527 3.468-0.79 5.311-0.79 3.19 0 5.648 0.775 7.374 2.326s2.59 3.921 2.59 7.111v14.047h-3.994zM8.604 31.407c-1.727 0-3.248-0.293-4.565-0.878-1.288-0.585-2.283-1.39-2.985-2.414-0.702-1.053-1.054-2.239-1.054-3.556 0-1.258 0.293-2.4 0.878-3.424 0.615-1.024 1.595-1.844 2.941-2.458 1.375-0.615 3.219-0.922 5.531-0.922h7.375v3.029h-7.199c-2.107 0-3.526 0.351-4.258 1.053s-1.097 1.551-1.097 2.546c0 1.141 0.454 2.063 1.361 2.765 0.907 0.673 2.166 1.010 3.775 1.010 1.58 0 2.956-0.351 4.126-1.053 1.2-0.702 2.063-1.727 2.59-3.073l0.834 2.897c-0.556 1.375-1.536 2.473-2.941 3.292-1.405 0.79-3.175 1.185-5.311 1.185z"></path>
<path d="M29.718 31.407c-2.487 0-4.682-0.512-6.584-1.536-1.873-1.024-3.336-2.429-4.39-4.214-1.024-1.785-1.536-3.834-1.536-6.145s0.497-4.36 1.492-6.145c1.024-1.785 2.414-3.175 4.17-4.17 1.785-1.024 3.79-1.536 6.014-1.536 2.253 0 4.243 0.498 5.97 1.492s3.073 2.4 4.038 4.214c0.995 1.785 1.492 3.878 1.492 6.277 0 0.176-0.015 0.38-0.044 0.614 0 0.234-0.015 0.454-0.044 0.659h-19.797v-3.029h17.602l-1.712 1.053c0.029-1.492-0.278-2.824-0.922-3.995s-1.536-2.078-2.678-2.722c-1.112-0.673-2.414-1.010-3.907-1.010-1.463 0-2.765 0.337-3.907 1.010-1.141 0.644-2.034 1.566-2.678 2.765-0.644 1.171-0.966 2.517-0.966 4.038v0.702c0 1.551 0.351 2.941 1.053 4.17 0.732 1.2 1.741 2.136 3.029 2.809s2.765 1.010 4.433 1.010c1.375 0 2.619-0.234 3.731-0.702 1.141-0.468 2.136-1.171 2.985-2.107l2.327 2.721c-1.053 1.229-2.37 2.166-3.951 2.809-1.551 0.644-3.292 0.966-5.224 0.966z"></path>
<path d="M37.311 3.292h-15.364v-3.292h15.364v3.292z"></path>
</symbol>
<!-- Кнопка в hero для анимації на desktop -->
<symbol id="btn-border" viewBox="0 0 76 76">
<path d="M62.6659 40.5006C62.7289 39.9408 62.8661 39.4199 63.0774 38.9377C63.2973 38.4565 63.5438 38.0873 63.817 37.8301L64.4939 38.3244C64.2562 38.5769 64.0355 38.9097 63.832 39.323C63.6371 39.7372 63.513 40.1812 63.4596 40.6549C63.3869 41.3008 63.4335 41.7769 63.5996 42.0833C63.7743 42.3906 64.0296 42.5631 64.3655 42.6007C64.6153 42.6286 64.8183 42.5685 64.9746 42.4203C65.1384 42.2816 65.2694 42.087 65.3674 41.8363C65.474 41.5866 65.5711 41.3053 65.6586 40.9925C65.7462 40.6796 65.8424 40.3677 65.9472 40.0568C66.051 39.7544 66.182 39.4813 66.3403 39.2374C66.5072 38.9944 66.7162 38.8042 66.9672 38.6666C67.2172 38.5376 67.536 38.4947 67.9235 38.5381C68.2939 38.5795 68.6139 38.72 68.8834 38.9595C69.153 39.1989 69.3473 39.5259 69.4663 39.9404C69.593 40.3644 69.6238 40.8649 69.5588 41.442C69.5094 41.8812 69.3996 42.3137 69.2296 42.7394C69.0681 43.1661 68.8767 43.5109 68.6552 43.7739L67.9639 43.2911C68.2045 43.0128 68.3873 42.7062 68.5123 42.3713C68.6458 42.0375 68.732 41.6983 68.7708 41.3538C68.8396 40.7423 68.7829 40.2781 68.6005 39.9612C68.4258 39.6539 68.1748 39.4819 67.8475 39.4453C67.5892 39.4164 67.378 39.4712 67.2141 39.6099C67.0493 39.7571 66.9093 39.9551 66.794 40.2038C66.6865 40.4621 66.5894 40.7434 66.5028 41.0477C66.4152 41.3606 66.3152 41.6677 66.2028 41.969C66.098 42.28 65.9664 42.5574 65.8082 42.8013C65.6575 43.0548 65.4572 43.246 65.2072 43.375C64.9648 43.5136 64.6585 43.5622 64.2881 43.5208C63.8919 43.4764 63.56 43.3259 63.2924 43.0692C63.0324 42.8221 62.8443 42.4784 62.7282 42.0381C62.6197 41.6074 62.599 41.0949 62.6659 40.5006Z" fill="black"/>
<path d="M67.3463 50.1166C67.1393 50.6312 66.8575 51.0412 66.501 51.3467C66.1494 51.6635 65.7287 51.8499 65.239 51.9062C64.746 51.9704 64.1937 51.8803 63.5821 51.6358L59.9005 50.1638L60.245 49.3076L63.8422 50.7457C64.5101 51.0127 65.081 51.045 65.5549 50.8424C66.0336 50.6511 66.3942 50.254 66.6369 49.651C66.8181 49.2007 66.8841 48.7697 66.8349 48.3581C66.7905 47.9576 66.6325 47.5958 66.3608 47.2725C66.094 46.9605 65.7192 46.708 65.2363 46.5149L61.9047 45.183L62.2493 44.3267L71.206 47.9076L70.8614 48.7639L66.5038 47.0217L66.8977 46.9831C67.2755 47.3675 67.5042 47.8323 67.5837 48.3775C67.6714 48.9258 67.5922 49.5056 67.3463 50.1166Z" fill="black"/>
<path d="M57.4711 53.3089C57.8879 52.7989 58.378 52.4321 58.9412 52.2085C59.5058 51.9971 60.0859 51.9378 60.6815 52.0307C61.2839 52.1291 61.8474 52.3913 62.3722 52.8174C62.9037 53.249 63.2754 53.7461 63.4871 54.3088C63.6988 54.8714 63.7545 55.447 63.6542 56.0354C63.5539 56.6237 63.2926 57.1763 62.8703 57.693C62.4425 58.2164 61.9497 58.5866 61.3919 58.8035C60.8286 59.0271 60.2519 59.0891 59.6618 58.9895C59.0661 58.8966 58.5026 58.6343 57.971 58.2027C57.4463 57.7766 57.0746 57.2795 56.8562 56.7114C56.639 56.1554 56.5799 55.5772 56.679 54.9766C56.7847 54.3815 57.0488 53.8256 57.4711 53.3089ZM58.1069 53.8252C57.7943 54.2077 57.6014 54.6149 57.5283 55.0467C57.4619 55.484 57.5149 55.9122 57.6873 56.3313C57.8609 56.7625 58.1529 57.1447 58.5633 57.478C58.9805 57.8167 59.4151 58.0245 59.8672 58.1013C60.3138 58.1848 60.7418 58.1472 61.1513 57.9885C61.5676 57.8353 61.9293 57.5708 62.2364 57.195C62.5435 56.8192 62.7303 56.4127 62.7966 55.9754C62.8698 55.5435 62.8229 55.1147 62.656 54.6889C62.4891 54.2631 62.1971 53.8809 61.7799 53.5422C61.3695 53.2089 60.9349 53.0012 60.4761 52.9189C60.024 52.8421 59.5899 52.8803 59.1736 53.0335C58.7641 53.1922 58.4085 53.4561 58.1069 53.8252Z" fill="black"/>
<path d="M51.4506 58.7618C51.9413 58.4353 52.4598 58.2516 53.0061 58.2108C53.5573 58.1771 54.0942 58.2935 54.6168 58.5599C55.1371 58.8383 55.6046 59.2871 56.0194 59.9064C56.4341 60.5257 56.6684 61.1245 56.722 61.703C56.7805 62.2887 56.6861 62.8252 56.4388 63.3125C56.1915 63.7998 55.8189 64.2091 55.321 64.5404C54.7799 64.9005 54.2145 65.0998 53.6248 65.1382C53.0328 65.1887 52.467 65.0759 51.9275 64.7999C51.3928 64.5311 50.9349 64.1123 50.5539 63.5434C50.1681 62.9674 49.9531 62.3817 49.9091 61.7864C49.865 61.1911 49.9774 60.627 50.2464 60.0941C50.5081 59.566 50.9095 59.1219 51.4506 58.7618ZM53.0163 54.7686L58.2178 62.5346L57.4819 63.0244L56.3388 61.3178L55.655 60.1333L54.7799 59.0604L52.2479 55.28L53.0163 54.7686ZM51.9605 59.4063C51.5565 59.6751 51.256 60.0052 51.0591 60.3965C50.867 60.795 50.7881 61.2222 50.8224 61.6783C50.8615 62.1416 51.0281 62.5928 51.3223 63.0321C51.6165 63.4713 51.9683 63.7941 52.3778 64.0005C52.7872 64.2069 53.2134 64.2981 53.6563 64.2741C54.0991 64.25 54.5226 64.1036 54.9266 63.8347C55.3307 63.5658 55.6323 63.2298 55.8316 62.8265C56.0237 62.428 56.1026 62.0007 56.0683 61.5446C56.0269 61.0934 55.859 60.6481 55.5648 60.2089C55.2706 59.7696 54.92 59.4408 54.5129 59.2224C54.1035 59.016 53.6773 58.9248 53.2345 58.9489C52.7892 58.9849 52.3646 59.1374 51.9605 59.4063Z" fill="black"/>
<path d="M42.6036 69.3223C42.0555 69.4071 41.5592 69.3743 41.1147 69.2238C40.663 69.0832 40.2882 68.8168 39.9903 68.4244C39.6838 68.0333 39.4798 67.5124 39.3785 66.8616L38.7683 62.9438L39.6804 62.8026L40.2766 66.6305C40.3873 67.3413 40.6505 67.8486 41.0663 68.1526C41.4748 68.4665 42.0002 68.5738 42.6426 68.4744C43.1222 68.4001 43.5265 68.2367 43.8556 67.9841C44.1774 67.7414 44.4081 67.4206 44.5477 67.0219C44.6801 66.6331 44.7063 66.1818 44.6263 65.668L44.0741 62.1227L44.9863 61.9816L46.0366 68.7253L45.163 68.8605L44.8749 67.0108L45.0702 67.3357C44.9322 67.857 44.6489 68.291 44.2205 68.638C43.7935 68.9935 43.2545 69.2216 42.6036 69.3223Z" fill="black"/>
<path d="M34.7224 62.4809C35.3741 62.5766 35.9399 62.8087 36.4199 63.177C36.89 63.5527 37.237 64.0198 37.4611 64.5783C37.6838 65.1453 37.7458 65.7632 37.6469 66.432C37.5467 67.1093 37.3086 67.6831 36.9324 68.1534C36.5562 68.6237 36.0893 68.9668 35.5317 69.1827C34.9741 69.3986 34.3652 69.4581 33.705 69.3611C33.0362 69.2628 32.4661 69.0301 31.9947 68.663C31.5148 68.2947 31.167 67.8319 30.9516 67.2746C30.7275 66.7161 30.6656 66.0982 30.7658 65.4209C30.8647 64.7522 31.1028 64.1784 31.4803 63.6995C31.8479 63.228 32.3154 62.8806 32.8828 62.6573C33.449 62.4427 34.0622 62.3839 34.7224 62.4809ZM34.6026 63.2911C34.1139 63.2193 33.665 63.2628 33.256 63.4217C32.8458 63.5892 32.5043 63.8544 32.2316 64.2172C31.9491 64.5874 31.7692 65.034 31.6918 65.557C31.6132 66.0886 31.6562 66.5679 31.8208 66.995C31.9769 67.4209 32.2277 67.7687 32.5733 68.0385C32.9176 68.3168 33.3299 68.4913 33.81 68.5618C34.2902 68.6324 34.7354 68.5839 35.1457 68.4165C35.5546 68.2576 35.8998 67.9973 36.181 67.6357C36.4623 67.274 36.6422 66.8275 36.7208 66.2959C36.7982 65.7729 36.7552 65.2936 36.5918 64.8579C36.4272 64.4307 36.1727 64.078 35.8284 63.7997C35.4828 63.5299 35.0742 63.3604 34.6026 63.2911Z" fill="black"/>
<path d="M29.0311 61.3169L28.0352 68.5363L27.2575 68.1161L28.2232 61.4419L28.5778 61.6335L23.4374 66.0521L22.7397 65.6752L23.6712 58.9825L24.0257 59.1741L18.9082 63.6051L18.1647 63.2034L23.7013 58.4373L24.4676 58.8513L23.6362 65.1695L23.396 65.0398L28.2648 60.9029L29.0311 61.3169Z" fill="black"/>
<path d="M18.1091 52.7163C18.4395 53.1725 18.6888 53.6498 18.8571 54.148C19.0182 54.6513 19.0842 55.0896 19.055 55.463L18.22 55.5512C18.2262 55.2051 18.1655 54.8111 18.038 54.369C17.9034 53.932 17.6963 53.5204 17.4167 53.1344C17.0355 52.6079 16.6801 52.2871 16.3505 52.1719C16.014 52.0617 15.7085 52.1053 15.4341 52.3027C15.2301 52.4495 15.1201 52.6301 15.1041 52.8445C15.076 53.0569 15.1101 53.2886 15.2063 53.5397C15.2955 53.7958 15.413 54.0689 15.5589 54.359C15.7048 54.6491 15.8436 54.9442 15.9754 55.2444C16.1022 55.5376 16.189 55.8275 16.236 56.114C16.2759 56.4055 16.2492 56.6863 16.1559 56.9564C16.0574 57.2194 15.8499 57.4648 15.5333 57.6926C15.2308 57.9102 14.899 58.0209 14.5378 58.0245C14.1766 58.0281 13.8123 57.9166 13.4448 57.6899C13.0652 57.4612 12.7051 57.1117 12.3645 56.6414C12.1052 56.2834 11.8952 55.89 11.7345 55.4612C11.5667 55.0374 11.4763 54.654 11.4633 54.311L12.3012 54.2046C12.3102 54.5718 12.3813 54.921 12.5142 55.2524C12.6402 55.5889 12.8048 55.8975 13.0082 56.1783C13.3691 56.6766 13.7239 56.9819 14.0726 57.094C14.4092 57.2042 14.7111 57.1631 14.9785 56.9707C15.1895 56.8189 15.3091 56.6367 15.3372 56.4243C15.3602 56.2049 15.3306 55.9646 15.2485 55.7034C15.1542 55.4403 15.0367 55.1672 14.8959 54.8841C14.75 54.594 14.6172 54.2998 14.4976 54.0016C14.3657 53.7014 14.2764 53.408 14.2294 53.1215C14.1703 52.8331 14.19 52.5573 14.2884 52.2943C14.3747 52.0293 14.5691 51.788 14.8716 51.5704C15.1952 51.3375 15.5427 51.2263 15.9141 51.2367C16.2733 51.2452 16.6443 51.3733 17.0271 51.621C17.3977 51.8669 17.7584 52.2319 18.1091 52.7163Z" fill="black"/>
<path d="M8.16247 48.7561C7.96902 48.2362 7.90135 47.7438 7.95948 47.2788C8.00645 46.8087 8.19236 46.3888 8.51718 46.0192C8.83898 45.6415 9.30878 45.3384 9.92657 45.11L13.6455 43.7349L13.9674 44.6L10.3338 45.9435C9.65915 46.193 9.21458 46.5514 9.00013 47.0188C8.77452 47.481 8.77508 48.0167 9.00178 48.6259C9.17106 49.0808 9.41265 49.4442 9.72657 49.7162C10.0293 49.9831 10.3903 50.1454 10.8093 50.2029C11.2172 50.2554 11.665 50.1915 12.1528 50.0111L15.5181 48.7668L15.84 49.6318L6.79267 52.9771L6.47074 52.112L10.8725 50.4845L10.6068 50.7768C10.0678 50.7451 9.5852 50.5539 9.15882 50.2034C8.72432 49.8558 8.3922 49.3734 8.16247 48.7561Z" fill="black"/>
<path d="M13.309 39.8036C13.3447 40.4613 13.2298 41.0621 12.9642 41.6058C12.6894 42.1414 12.3007 42.5746 11.7979 42.9055C11.2864 43.2368 10.6931 43.4207 10.0181 43.457C9.33444 43.4939 8.72477 43.3749 8.18909 43.1C7.65341 42.8251 7.22437 42.4359 6.90196 41.9326C6.57956 41.4292 6.40028 40.8443 6.36413 40.178C6.32751 39.5029 6.44224 38.8979 6.70831 38.3628C6.97391 37.819 7.35835 37.3861 7.86164 37.0638C8.36445 36.733 8.9577 36.5491 9.64137 36.5123C10.3164 36.4759 10.9261 36.5949 11.4704 36.8693C12.0056 37.1356 12.439 37.5245 12.7705 38.0361C13.0934 38.5481 13.2729 39.1373 13.309 39.8036ZM12.4912 39.8477C12.4645 39.3544 12.3326 38.9232 12.0956 38.5541C11.8499 38.1855 11.5222 37.9037 11.1123 37.7088C10.6934 37.5057 10.22 37.4184 9.69207 37.4469C9.15552 37.4758 8.6943 37.6135 8.30842 37.86C7.92207 38.0978 7.63104 38.4129 7.43535 38.8053C7.231 39.1982 7.14197 39.637 7.16826 40.1216C7.19455 40.6062 7.33052 41.0328 7.57619 41.4015C7.81319 41.7706 8.13685 42.0569 8.54714 42.2605C8.95744 42.464 9.43086 42.5513 9.96742 42.5224C10.4953 42.494 10.9565 42.3563 11.3511 42.1094C11.737 41.8629 12.0321 41.5432 12.2364 41.1503C12.4321 40.7579 12.5171 40.3237 12.4912 39.8477Z" fill="black"/>
<path d="M14.0741 31.7089C13.9303 32.2805 13.67 32.7648 13.2931 33.1619C12.9077 33.557 12.4321 33.8312 11.8663 33.9846C11.2942 34.1274 10.6466 34.1085 9.92346 33.9278C9.20036 33.7471 8.6246 33.4603 8.19617 33.0674C7.75934 32.6724 7.46873 32.2111 7.32435 31.6837C7.17998 31.1563 7.18072 30.6027 7.32659 30.0227C7.48515 29.3923 7.76973 28.8649 8.18033 28.4405C8.58464 28.0055 9.07919 27.7093 9.66396 27.5517C10.2403 27.392 10.8606 27.3951 11.5249 27.5611C12.1975 27.7292 12.7501 28.0192 13.1827 28.431C13.6154 28.8429 13.9112 29.3367 14.0702 29.9124C14.2313 30.4797 14.2326 31.0786 14.0741 31.7089ZM15.5984 35.7212L6.53029 33.4551L6.74592 32.5978L8.73864 33.0957L10.0407 33.5149L11.4093 33.723L15.8236 34.8261L15.5984 35.7212ZM13.2637 31.5734C13.3821 31.1027 13.3827 30.6562 13.2655 30.2339C13.1399 29.8094 12.9112 29.4396 12.5794 29.1244C12.2392 28.8072 11.8126 28.5844 11.2997 28.4563C10.7868 28.3281 10.3095 28.3249 9.86777 28.4468C9.42603 28.5687 9.04935 28.7872 8.73772 29.1024C8.42609 29.4176 8.21108 29.8105 8.09269 30.2812C7.9743 30.7518 7.97685 31.2036 8.10033 31.6365C8.22592 32.0609 8.45462 32.4307 8.78642 32.7459C9.12034 33.0527 9.54375 33.2701 10.0566 33.3983C10.5695 33.5265 11.05 33.5349 11.498 33.4235C11.9398 33.3017 12.3165 33.0831 12.6281 32.768C12.9334 32.4423 13.1453 32.0441 13.2637 31.5734Z" fill="black"/>
<path d="M13.4973 17.9983C13.8467 17.5676 14.2368 17.2587 14.6676 17.0716C15.097 16.8723 15.5542 16.8177 16.039 16.9079C16.5293 16.9914 17.0308 17.2398 17.5437 17.6531L20.6308 20.1413L20.0493 20.8581L17.033 18.427C16.473 17.9757 15.9366 17.7771 15.4238 17.8314C14.9098 17.8735 14.4481 18.1469 14.0386 18.6517C13.7328 19.0286 13.5429 19.421 13.4688 19.8287C13.3934 20.2243 13.438 20.6165 13.6026 21.0051C13.7659 21.3816 14.0499 21.733 14.4548 22.0593L17.2484 24.3109L16.6669 25.0277L11.353 20.7448L11.9099 20.0583L13.3675 21.233L13.0041 21.1238C12.7559 20.6456 12.6741 20.1343 12.7584 19.5901C12.836 19.0405 13.0823 18.5099 13.4973 17.9983Z" fill="black"/>
<path d="M23.8282 17.8418C23.2812 18.2087 22.7057 18.4173 22.1018 18.4676C21.5002 18.5058 20.928 18.3939 20.3851 18.1319C19.8374 17.8627 19.3744 17.448 18.9962 16.8877C18.6131 16.3203 18.402 15.7366 18.363 15.1366C18.3239 14.5367 18.4379 13.9697 18.7049 13.4359C18.9719 12.902 19.3824 12.4492 19.9367 12.0774C20.4981 11.7009 21.0771 11.4899 21.6739 11.4444C22.2778 11.3942 22.8476 11.5024 23.3832 11.7693C23.9261 12.0313 24.3891 12.446 24.7722 13.0135C25.1504 13.5738 25.3615 14.1575 25.4054 14.7646C25.4516 15.3597 25.3401 15.9302 25.0708 16.4761C24.7966 17.0148 24.3824 17.4701 23.8282 17.8418ZM23.3699 17.163C23.7802 16.8878 24.0831 16.5542 24.2785 16.1622C24.4691 15.7631 24.5429 15.3379 24.4997 14.8868C24.459 14.4237 24.2907 13.973 23.9949 13.5349C23.6942 13.0895 23.3388 12.7644 22.9286 12.5595C22.5256 12.3498 22.1051 12.2613 21.6672 12.2942C21.2244 12.3198 20.8015 12.4679 20.3984 12.7382C19.9954 13.0086 19.6985 13.3433 19.5079 13.7425C19.3125 14.1345 19.2327 14.5585 19.2686 15.0144C19.3046 15.4703 19.4729 15.921 19.7735 16.3663C20.0693 16.8045 20.4248 17.1296 20.8398 17.3417C21.25 17.5466 21.6765 17.6362 22.1193 17.6106C22.5572 17.5777 22.9741 17.4285 23.3699 17.163Z" fill="black"/>
<path d="M28.9337 14.8097L24.8175 8.78344L25.6767 8.57562L29.4486 14.1769L29.0569 14.2716L29.897 7.55489L30.6678 7.36846L34.4776 12.9606L34.0859 13.0553L34.9008 6.34467L35.7221 6.14602L34.8219 13.3855L33.9753 13.5903L30.3431 8.3431L30.6085 8.27893L29.7803 14.6049L28.9337 14.8097Z" fill="black"/>
<path d="M42.7915 13.8561C42.2407 13.7383 41.7359 13.5505 41.2771 13.2929C40.8203 13.0268 40.4775 12.7452 40.2489 12.4481L40.8089 11.8235C41.0363 12.0848 41.3455 12.3371 41.7364 12.5802C42.1292 12.8149 42.5586 12.9821 43.0247 13.0818C43.6603 13.2177 44.139 13.2182 44.4606 13.0831C44.784 12.9396 44.9813 12.7026 45.0525 12.3722C45.1054 12.1265 45.0659 11.9186 44.9341 11.7486C44.8125 11.572 44.6319 11.4226 44.3923 11.3004C44.1544 11.1698 43.8842 11.0455 43.5816 10.9276C43.2789 10.8097 42.9781 10.6833 42.6792 10.5484C42.3886 10.4154 42.1299 10.2582 41.9031 10.0767C41.678 9.88674 41.5096 9.66017 41.3978 9.39696C41.2945 9.13558 41.2839 8.81425 41.366 8.43298C41.4444 8.06867 41.6163 7.76422 41.8817 7.51966C42.1472 7.2751 42.4921 7.11403 42.9166 7.03644C43.3514 6.95218 43.8527 6.97079 44.4206 7.09224C44.8528 7.18469 45.2722 7.33645 45.6789 7.54751C46.0874 7.75011 46.4115 7.97451 46.651 8.22073L46.101 8.86084C45.8481 8.59405 45.5613 8.38204 45.2406 8.22481C44.9216 8.0591 44.5927 7.93999 44.2537 7.86748C43.6519 7.73877 43.1842 7.74951 42.8505 7.89969C42.527 8.04321 42.3306 8.27595 42.2613 8.59791C42.2066 8.85208 42.24 9.0675 42.3615 9.24417C42.4916 9.42264 42.6746 9.58143 42.9106 9.72054C43.1569 9.85299 43.4271 9.97726 43.7213 10.0934C44.0239 10.2113 44.3196 10.341 44.6082 10.4825C44.9072 10.6173 45.1702 10.7755 45.397 10.957C45.6342 11.1318 45.8045 11.3499 45.9078 11.6113C46.0214 11.866 46.039 12.1755 45.9605 12.5398C45.8766 12.9296 45.6935 13.2449 45.4111 13.4858C45.1391 13.7201 44.7781 13.8733 44.3281 13.9455C43.8885 14.011 43.3763 13.9812 42.7915 13.8561Z" fill="black"/>
<path d="M52.9315 10.1516C53.4233 10.4081 53.8034 10.7284 54.0716 11.1125C54.3515 11.493 54.4945 11.9292 54.5006 12.4211C54.5145 12.917 54.3684 13.4566 54.0623 14.0398L52.2199 17.5508L51.4015 17.1241L53.2016 13.6937C53.5358 13.0567 53.6261 12.493 53.4725 12.0024C53.3306 11.5081 52.9714 11.1107 52.3951 10.8102C51.9647 10.5859 51.5418 10.4778 51.1264 10.486C50.7228 10.4906 50.346 10.6118 49.9961 10.8496C49.6578 11.0838 49.3679 11.4311 49.1263 11.8916L47.4591 15.0687L46.6407 14.642L51.1228 6.10056L51.9412 6.52727L49.7606 10.6829L49.7623 10.2879C50.184 9.95065 50.6706 9.76942 51.2221 9.74421C51.7777 9.71132 52.3475 9.84713 52.9315 10.1516Z" fill="black"/>
<path d="M55.1599 20.2557C54.6917 19.7924 54.3737 19.2705 54.2058 18.6898C54.0503 18.1092 54.0482 17.5279 54.1995 16.9461C54.357 16.3582 54.6742 15.8247 55.1512 15.3458C55.6344 14.8607 56.1673 14.5406 56.7498 14.3855C57.3324 14.2304 57.9125 14.2314 58.49 14.3883C59.0676 14.5453 59.5935 14.8585 60.0679 15.3279C60.5484 15.8034 60.8695 16.3284 61.0312 16.9029C61.199 17.4836 61.2042 18.0617 61.0467 18.6374C60.8953 19.2192 60.5781 19.7527 60.0949 20.2378C59.6179 20.7168 59.085 21.0369 58.4963 21.1981C57.9199 21.3592 57.3368 21.3614 56.747 21.2044C56.1633 21.0414 55.6342 20.7251 55.1599 20.2557ZM55.7378 19.6754C56.089 20.0229 56.4765 20.254 56.9005 20.3687C57.3305 20.4773 57.7632 20.4665 58.1986 20.3365C58.6462 20.2064 59.0565 19.954 59.4296 19.5794C59.8088 19.1987 60.059 18.7879 60.1801 18.3469C60.3075 17.912 60.312 17.4837 60.1939 17.062C60.0818 16.6341 59.8533 16.2495 59.5083 15.9081C59.1634 15.5667 58.7758 15.3418 58.3458 15.2332C57.9218 15.1185 57.4891 15.1231 57.0476 15.2471C56.6061 15.3711 56.1957 15.6234 55.8166 16.0041C55.4435 16.3787 55.1933 16.7895 55.066 17.2367C54.9449 17.6776 54.9403 18.112 55.0524 18.5399C55.1705 18.9617 55.399 19.3402 55.7378 19.6754Z" fill="black"/>
<path d="M59.9845 26.6486C59.7049 26.1298 59.5704 25.5972 59.5811 25.0508C59.5994 24.5003 59.7661 23.9784 60.0812 23.4853C60.408 22.9957 60.8999 22.5749 61.557 22.223C62.214 21.8712 62.8337 21.6966 63.4161 21.6993C64.0061 21.698 64.5326 21.8437 64.9956 22.1364C65.4586 22.4292 65.8319 22.8388 66.1157 23.3652C66.4241 23.9374 66.5697 24.5181 66.5526 25.1073C66.5472 25.7 66.3814 26.2509 66.0551 26.7599C65.7365 27.2647 65.2755 27.6788 64.6719 28.002C64.0607 28.3293 63.456 28.4861 62.8578 28.4722C62.2595 28.4583 61.7072 28.292 61.2007 27.9734C60.6983 27.6624 60.2929 27.2208 59.9845 26.6486ZM56.147 24.7073L64.3868 20.2947L64.8062 21.0728L62.9955 22.0425L61.7491 22.6068L60.596 23.3718L56.5849 25.5198L56.147 24.7073ZM60.6757 26.2047C60.9059 26.632 61.207 26.9623 61.579 27.1957C61.9586 27.425 62.3775 27.5447 62.8359 27.5548C63.3019 27.5609 63.7679 27.4391 64.2339 27.1895C64.7 26.94 65.0553 26.6219 65.2998 26.2353C65.5443 25.8488 65.6755 25.4344 65.6932 24.9924C65.7109 24.5503 65.6046 24.1157 65.3743 23.6885C65.144 23.2612 64.8371 22.9292 64.4534 22.6922C64.0738 22.4629 63.6548 22.3432 63.1965 22.3331C62.7422 22.3306 62.2821 22.4541 61.816 22.7037C61.35 22.9533 60.9888 23.2696 60.7325 23.6526C60.488 24.0391 60.3569 24.4535 60.3392 24.8955C60.3332 25.3411 60.4454 25.7775 60.6757 26.2047Z" fill="black"/>
</symbol>
<symbol id="btn-arrow" viewBox="0 0 25 19">
<path d="M24.1463 1.62023C24.1895 1.34749 24.0034 1.09137 23.7307 1.04817L19.2861 0.344213C19.0134 0.301015 18.7572 0.487097 18.714 0.75984C18.6708 1.03258 18.8569 1.2887 19.1297 1.3319L23.0804 1.95764L22.4547 5.90839C22.4115 6.18114 22.5976 6.43726 22.8703 6.48045C23.143 6.52365 23.3992 6.33757 23.4424 6.06483L24.1463 1.62023ZM1.29389 18.4045L23.9464 1.94652L23.3586 1.1375L0.706107 17.5955L1.29389 18.4045Z"/>
</symbol>
<symbol id="icon-phone" viewBox="0 0 32 32">
<path d="M26.331 6.267l-3.346-3.344c-0.392-0.394-0.934-0.638-1.534-0.638s-1.142 0.244-1.534 0.638l-0 0-3.606 3.599c-0.394 0.393-0.638 0.936-0.638 1.537s0.244 1.144 0.638 1.537l2.816 2.818c-0.677 1.554-1.592 2.881-2.715 4l-0 0c-1.119 1.125-2.444 2.042-3.916 2.69l-0.082 0.032-2.815-2.819c-0.392-0.394-0.934-0.638-1.534-0.638s-1.142 0.244-1.534 0.638l-0 0-3.608 3.599c-0.394 0.393-0.638 0.936-0.638 1.537s0.244 1.144 0.638 1.537l3.344 3.343c0.697 0.697 1.659 1.097 2.647 1.097 0.205 0 0.402-0.016 0.603-0.050 4.16-0.686 8.29-2.901 11.625-6.232 3.331-3.337 5.544-7.466 6.235-11.63 0.031-0.181 0.049-0.389 0.049-0.602 0-1.034-0.419-1.97-1.096-2.647l0 0zM25.15 9.143c-0.613 3.705-2.606 7.4-5.607 10.401s-6.694 4.994-10.4 5.606c-0.071 0.012-0.152 0.019-0.235 0.019-0.409 0-0.778-0.166-1.046-0.434l-3.285-3.283 3.482-3.486 3.793 3.8 0.679-0.251c4.177-1.566 7.414-4.803 8.945-8.876l0.034-0.104 0.251-0.679-3.797-3.794 3.482-3.483 3.285 3.283c0.339 0.339 0.496 0.817 0.417 1.282z"></path>
</symbol>
</defs>
</svg>
